<svg xmlns="http://www.w3.org/2000/svg" width="51.226" height="56.648" viewBox="0 0 51.226 56.648">
  <g id="Group_1" data-name="Group 1" transform="translate(-3.478 -1.168)">
    <path id="Path_1" data-name="Path 1" d="M38.051,31.4l-3.47-16.079L25.694,8.04H23.889L14.863,1.168v2.2l8.409,6.185L12.5,4.191l-3.888.138L11.254,7.49l10.969,4.4L9.587,9l-4.721.137,4.165,2.2,11.247,2.474L8.616,13.537,3.478,15.049,8.616,17.11l10.552-.825-8.47,2.2L8.338,20.959l3.332.412L18.335,18.9l-6.525,3.986L10.7,25.494l6.387.412-1.666,1.5-.556,2.762L16.947,31.4l-.694,2.337,1.666.963-.139,1.649h2.985v1.787h2.507l-.911,1.374,3.748-.55L22.362,41.3,19.445,43.36l-10.829.962L7.088,46.246l1.528,1.1,7.636-2.336L7.783,48.446l-1.25,1.511H10l6.248-2.611-7.5,3.573-.972,1.65L10,53.255,21.389,47.9l3.472-.275L22.5,51.744l2.221-.687-1.449,2.2,7.7-.686,2.777-2.2.417-2.473,2.083-5.636,7.636-5.085-1.951.039,1.951-1.833L41.19,35.2l1.851-1.008-1.759-.275,1.573-1.1-2.129-.641,1.759-1.558Z"/>
    <path id="Path_2" data-name="Path 2" d="M38.166,28.845l9.011-2.993,1.172-3.421L50.2,24.875v1.832L44.77,29.639,38.537,30.8Z"/>
    <path id="Path_3" data-name="Path 3" d="M29.527,53.724l1.481,1.343V56.29l-.246.916L32,56.534V54.946l.8,1.527-.432,1.343,1.357-1.71-1.481-2.382-1.048-.269Z"/>
    <path id="Path_4" data-name="Path 4" d="M32.975,54.029l1.18.634.371,1.32-.8,1.062.433-1.054Z"/>
    <path id="Path_5" data-name="Path 5" d="M33.122,52.164l2.191,1.818.432,1.068.74.287-.91-2.082L37.118,54l.4,2.107.525-1.069-.9-2.184L38.321,53.9l.123,1.649.6-1.42L37.611,51.92H34.958l-.818-1.068Z"/>
    <path id="Path_6" data-name="Path 6" d="M54.212,32.877l-1.111-1.1H51.312l-.062-.611L49.4,30.31H43.883l-1.89,1.528,2.962.367L42.3,33.441l2.9.535-2.716.916h2.469l-1.729,1.68h1.758l6.85-2.107h1.759l1.11.641Zm-4.567-.311a.455.455,0,1,1,.46-.454A.457.457,0,0,1,49.645,32.566Z"/>
  </g>
</svg>
