<svg id="Group_1" data-name="Group 1" xmlns="http://www.w3.org/2000/svg" width="34.613" height="48.003" viewBox="0 0 34.613 48.003">
  <path id="Path_1" data-name="Path 1" d="M34.58,23.533a5.327,5.327,0,0,0-4.52-4.6,5.51,5.51,0,0,1-2.47-1.24,6.616,6.616,0,0,0-1.35-.9,11.511,11.511,0,0,0,.88.97.929.929,0,0,0-.42-.1l.22,1.98-.69.15c.1.08.2.15.3.22l1.18.71-1.05.9a8.53,8.53,0,0,1-1.01.75,1.477,1.477,0,0,1,.64,1.3,1.457,1.457,0,0,1-.8,1.18,10.245,10.245,0,0,1-1.04.54l.03.07a1.111,1.111,0,0,1-.01.91,1.438,1.438,0,0,1-.85.74l-1.47.55.55-.13c1.59-.69,1.98.51,1.98.51a1.223,1.223,0,0,0,1.82,0c0-.27,1.2-.47,1.2-.47a2.106,2.106,0,0,0,1.66-1.04c.54-.89,1.2-.45,2.27-.89a.761.761,0,0,1,1.01.54c.11.49.19,1.01.19,1.01C35,25.443,34.58,23.533,34.58,23.533Z"/>
  <path id="Path_2" data-name="Path 2" d="M11.9,45.37a.709.709,0,0,0,.745.572c1.28-.13,3.83-.32,3.83-.32a4.124,4.124,0,0,0,.93-.2,1.774,1.774,0,0,0-.914,1.869A6.287,6.287,0,0,1,19.28,46.5a.709.709,0,0,0,.79.5,2.354,2.354,0,0,1,.615.024h0l.137.976s1.27-.264,2.36-.482v-.006a11.115,11.115,0,0,0,1.838-.6c2.45-1.13,1.83-2.56,1.83-2.56l-1.91-9.29c.7-2.86-1.2-3.72-1.2-3.72a10.108,10.108,0,0,1-.86-2.82l-3.01.67-5.57.76a2.029,2.029,0,0,1,.26.31l1.38,2.01c-.35,1.02.7,2.25.7,2.25.66,1.32-.5,6.26-.5,6.26-.42,2.21-2.67,2.64-3.67,2.73a.612.612,0,0,0-.568.413l-.055-.041s-2.839-.089-2.611,2.268A6.514,6.514,0,0,1,11.9,45.37Zm7.115-2.348c-.27-.85,0-8.34,0-8.34,1.51-1.86-.63-3.73-.63-3.73,1.25.16,2.06,1.82,2.06,1.82,2.13,1.86,3.02,6.19,3.31,7.98a3.984,3.984,0,0,1-.89,2.86c-.97,1.656-3.572.348-3.788,1.406a3.976,3.976,0,0,0-1.254.211A2.294,2.294,0,0,0,19.01,43.023Z"/>
  <path id="Path_3" data-name="Path 3" d="M8.66,29.143l3.62-.5c2.26-.81,4.52-1.65,6.76-2.47.14-.05.33-.18.28-.32a2.864,2.864,0,0,1-1.4-.7,11.488,11.488,0,0,0,2.81-1.16.533.533,0,0,0,.31-.33c.06-.21-.13-.41-.3-.54-.37-.32-.73-.63-1.1-.94a8.288,8.288,0,0,0,2.12-1.32,3.648,3.648,0,0,1-1.45-1.7c.71-.17,1.42-.34,2.14-.5a20.465,20.465,0,0,1-2.48-2.73c-5.02-1.59-9.02-1.61-11.7,2.81a1.179,1.179,0,0,1-.52.421,1.336,1.336,0,0,1-.3.091c-.027.005-.053.015-.081.019s-.05-.006-.076,0a1.113,1.113,0,0,1-.352-.026l.01.01c.01,0,.022,0,.032,0h0c-.011,0-.024,0-.035,0-1.21-.37-1.55-1.53-1.71-2.66H2.36A24.782,24.782,0,0,0,2.39,20a8.65,8.65,0,0,0,.925,2.68c-.024-.05-.052-.1-.075-.15.029.062.063.125.093.187.043.089.087.177.132.267.13.261.273.521.413.782,1.125,2.064,2.473,4,2.473,4A4.418,4.418,0,0,0,8.66,29.143Zm-.914-9.977-.013.007a1.547,1.547,0,0,1-.162.048A1.324,1.324,0,0,0,7.747,19.166Z"/>
  <path id="Path_4" data-name="Path 4" d="M4.08,24.153c-.071-.128-.134-.256-.2-.385-.047-.086-.1-.17-.141-.256Z"/>
  <path id="Path_5" data-name="Path 5" d="M24.24,15.953c-.01-.01-.02-.01-.02-.02a19.047,19.047,0,0,0-2.56-.6.453.453,0,0,0-.16-.03c-.16-.02-.3-.05-.44-.07s-.25-.04-.36-.05l.14.25a27.677,27.677,0,0,0,2.09,2.36c-.01,0,1,1.429.7,1.429l-.951.411c-.42.43-1.68-.42.78,1.09l-1.04.9a10.56,10.56,0,0,1-1.01.75,1.466,1.466,0,0,1,.6,1.54,1.525,1.525,0,0,1-.77.95c-.34.19-.68.37-1.03.53l.04.1a1.174,1.174,0,0,1-.3,1.28,1.661,1.661,0,0,1-.55.33l-1.69.63-3.3,1.2,2.12-.29c2.25-.81,4.51-1.65,6.76-2.47.14-.05.33-.18.27-.32a2.864,2.864,0,0,1-1.4-.7,11.558,11.558,0,0,0,2.82-1.16c.44-.26.4-.56.01-.87-.37-.32-.74-.63-1.1-.94a8.464,8.464,0,0,0,2.12-1.32,3.668,3.668,0,0,1-1.46-1.7c.72-.17,1.43-.34,2.15-.5-.25,0-1.3-1.34-1.48-1.54A7.072,7.072,0,0,1,24.24,15.953Z"/>
  <path id="Path_6" data-name="Path 6" d="M2.4,15.593H5.12a7.733,7.733,0,0,1,.27-1.97c.77-2.9,1.97-10.16,1.97-10.16C8.4.553,4.91.083,4.91.083,2.57-.377,1.94,1.2,1.78,1.863c-.11.48-.54.52-1.6,1.21-.94.86,2.1,1.09,2.1,1.09,3.21-.35.69,8.43.69,8.43A13.194,13.194,0,0,0,2.4,15.593ZM2.732,2.708a1.969,1.969,0,0,1-.7.031c.257-.449.973-.337.917,0A.321.321,0,0,0,2.732,2.708Zm1.226-.426a1.893,1.893,0,0,1,2.231-.2.243.243,0,0,1,.049.393,3.116,3.116,0,0,0-.315.3,1.185,1.185,0,0,1-.723.4s-.015,0-.019,0a1.351,1.351,0,0,1-1.2-.49c-.019-.019-.034-.044-.053-.063A.233.233,0,0,1,3.958,2.282Z"/>
</svg>
