<svg xmlns="http://www.w3.org/2000/svg" width="50.264" height="37.76" viewBox="0 0 50.264 37.76">
  <path id="Path_1" data-name="Path 1" d="M23.505,11.639c-1.774-3.047-5.956-5.84-8.933-7.745C11.467,1.927,4.308-1.565,1.014.784-2.915,3.641,5.7,13.8,7.729,15.829c2.344,2.349,3.928.952,5.005,1.4.57.19-1.9.7-.95,2.222.317.635-.95.889-1.2,1.651-.317,1.079,1.33,1.65.887,2.476-.507.952-2.788,2.476-1.774,3.555.38.381,1.2.7,1.33,1.206.317,1.206-6.4,6.729-3.611,8.761,2.154,1.587,5.575-5.967,6.146-5.333,3.231,3.682,3.611-1.333,3.991-1.46.7-.191,2.408,1.65,3.1-.762.7-2.6,1.331-3.555,2.027-5.714A49.085,49.085,0,0,0,24.2,15.893c0,2.412,0,8.38.76,10.094.317.889.76-1.841.76-1.968.253-2.158.507-6.031.57-8.126.317,2.349.824,6.793,1.267,8.316.7,2.158,1.33,3.174,2.027,5.713.7,2.476,2.408.635,3.1.825.444.191.634,5.079,3.992,1.46.57-.635,3.992,6.92,6.146,5.333,2.788-2.095-3.928-7.554-3.611-8.76.127-.508.95-.825,1.33-1.206,1.014-1.079-1.267-2.666-1.711-3.555-.507-.889,1.14-1.4.824-2.539-.253-.762-1.521-1.016-1.14-1.587.887-1.587-1.584-2.095-1.014-2.285,1.077-.381,2.661,1.016,5.005-1.4,2.027-2.031,10.707-12.125,6.716-14.982C45.933-1.121,38.774,2.371,35.669,4.339c-2.978,1.841-7.1,4.7-8.933,7.745-.19.381-.38,1.206-.507,1.46.063-1.143.19-3.809-.19-4.7,1.33-1.968,3.231-5.777,5.892-6.158.57-.063.507-1.143.063-1.016-2.154.508-4.942,4-5.955,5.777a4.607,4.607,0,0,0-.38.889.575.575,0,0,0-.7-.063,2.255,2.255,0,0,0-.38-1.016c-1.014-1.714-3.865-5.333-5.955-5.777-.444-.063-.507.952.063,1.016,2.914.508,4.372,4.19,5.955,6.221-.57,1.079-.444,3.618-.444,4.825A4.7,4.7,0,0,0,23.505,11.639Zm-11.087-4.7c-.57.825.887,2.984,3.358,4.888s4.942,2.793,5.575,2.031c.57-.762-.95-2.984-3.358-4.888C15.522,7.069,13.051,6.18,12.418,6.942Zm25.026,0c-.634-.7-3.1.317-5.449,2.349-2.344,1.968-3.738,4.253-3.1,5.015.633.7,3.041-.317,5.449-2.349C36.683,9.989,38.077,7.7,37.444,6.942Zm9.313-2.285c-.634-.762-3.1.254-5.449,2.285s-3.738,4.253-3.1,5.015,3.041-.254,5.385-2.285C46,7.64,47.39,5.418,46.757,4.656ZM20.527,17.924c-.76-.635-3.041.635-5.132,2.92-2.154,2.285-3.295,4.634-2.6,5.333.76.7,3.041-.635,5.2-2.92C20.084,21.035,21.224,18.622,20.527,17.924Zm9.25.317c-.824.571-.127,2.285,1.647,4.825,2.851,2.984,3.548,3.809,5.512,3.618.824-.571.254-2.031-1.521-4.571C33.705,19.511,30.6,17.67,29.777,18.242ZM2.914,4.4c-.57.825.887,2.984,3.358,4.888s4.942,2.793,5.575,2.031c.57-.762-.95-2.984-3.358-4.888C6.019,4.529,3.548,3.641,2.914,4.4Z" fill-rule="evenodd"/>
</svg>
