<svg xmlns="http://www.w3.org/2000/svg" width="51.556" height="51.556" viewBox="0 0 51.556 51.556">
  <path id="Path_1" data-name="Path 1" d="M40.875,54.729a2.392,2.392,0,0,1-.783-.206c-.5-.2-.593-.274-.593-.451,0-.07-.014-.12-.035-.128s-.18-.024-.357-.037-.389-.036-.471-.051-.306-.039-.5-.053c-.57-.042-.816-.1-.9-.206a.267.267,0,0,1,.012-.333.428.428,0,0,0,.068-.126,2.09,2.09,0,0,1,.472-.605,3.132,3.132,0,0,0,.257-.292,1.26,1.26,0,0,1,.122-.152,5.525,5.525,0,0,1,.674-.5,1.748,1.748,0,0,0,.528-.455,6.37,6.37,0,0,0,.334-1.083c.113-.465.289-1.193.4-1.644.153-.638.27-1.181.333-1.551.021-.124.057-.291.08-.371a7.929,7.929,0,0,0,.151-.831A34.3,34.3,0,0,0,40.55,41.6c-.035-.391-.128-1.069-.165-1.206a2.974,2.974,0,0,0-.248-.541,2.385,2.385,0,0,1-.125-.2c-.1-.172-.161-.272-.392-.618a2.512,2.512,0,0,1-.173-.292A1.517,1.517,0,0,0,39.3,38.5c-.061-.082-.15-.215-.2-.3s-.109-.176-.136-.212-.1-.144-.152-.239a2.1,2.1,0,0,0-.162-.239,1.618,1.618,0,0,1-.147-.225c-.049-.087-.128-.219-.176-.292-.206-.31-.334-.513-.407-.646a1.663,1.663,0,0,0-.175-.252c-.053-.06-.148-.183-.209-.273-.128-.187-.229-.274-.316-.274a1.19,1.19,0,0,0-.273.1,2.362,2.362,0,0,1-.341.127,1.7,1.7,0,0,1-.748-.061.879.879,0,0,1-.431-.48.944.944,0,0,1-.044-.494c.019-.341.008-.385-.112-.418a2.532,2.532,0,0,0-.784-.1,3.317,3.317,0,0,0-1.381.318,6.1,6.1,0,0,1-.769.2c-.208.038-.463.087-.567.109a8.5,8.5,0,0,1-.962.156.575.575,0,0,0-.178.013c-.086.014-.344.034-.573.043s-.424.021-.432.025c-.036.021-1.65.053-2.456.05a21.033,21.033,0,0,1-3.2-.248l-.445-.068c-.479-.072-1.521-.27-2.024-.384a9.576,9.576,0,0,1-1.314-.393c-.027-.013-.128-.059-.224-.1a1.982,1.982,0,0,1-.334-.2.386.386,0,0,0-.315-.119.4.4,0,0,0-.382.215,1,1,0,0,0-.147.713,1.886,1.886,0,0,1-.037.57c-.029.139-.083.538-.121.889s-.074.654-.08.676c-.011.037-.031.266-.1,1.14-.015.2-.031,1.152-.037,2.122l-.01,1.764-.138.4c-.076.221-.175.5-.221.609s-.168.45-.271.747-.2.564-.216.593-.029.842-.029,2.562c0,1.38-.011,2.626-.024,2.769a.8.8,0,0,1-.1.384,2.927,2.927,0,0,1-.484.605,1.083,1.083,0,0,0-.387.67,1.171,1.171,0,0,0,.067.308.619.619,0,0,1-.078.675,3.21,3.21,0,0,1-1.686,1.331,12.451,12.451,0,0,1-2.2.08,5.469,5.469,0,0,1-.848-.111.726.726,0,0,1-.36-.323,1.62,1.62,0,0,1,.071-.765,2.779,2.779,0,0,1,.3-.8A1.228,1.228,0,0,0,11.9,51.3a1.147,1.147,0,0,1,.094-.161,1.072,1.072,0,0,0,.094-.163,2.265,2.265,0,0,1,.362-.457,3.675,3.675,0,0,1,1-.67,1.094,1.094,0,0,0,.516-.386,1.9,1.9,0,0,0,.052-.482,3.333,3.333,0,0,1,.347-1.5,5.02,5.02,0,0,0,.273-2.281,6.386,6.386,0,0,1,.093-1.55,4.125,4.125,0,0,0-.268-1.79,2.23,2.23,0,0,1-.084-1.392c.016-.124.041-.3.057-.386a1.163,1.163,0,0,0-.069-.595,4,4,0,0,1-.109-.954,7.34,7.34,0,0,0-.381-2.055c-.037-.131-.078-.28-.091-.332-.073-.281-.261-.9-.433-1.421a2.1,2.1,0,0,1-.08-.284.451.451,0,0,0-.038-.13c-.038-.088-.134-.38-.219-.67a6.969,6.969,0,0,0-.495-1.312.9.9,0,0,0-.057-.106,1.58,1.58,0,0,1-.082-.159c-.03-.066-.078-.161-.106-.212a3.733,3.733,0,0,1-.244-.517A.1.1,0,0,0,12,31.264a.478.478,0,0,1-.085-.129,3,3,0,0,0-.16-.271l-.192-.295c-.191-.3-.365-.551-.467-.686-.061-.08-.175-.237-.252-.349a2.218,2.218,0,0,0-.971-.946,2.978,2.978,0,0,0-.431-.177l-.318-.078c-.1-.024-.26-.066-.364-.094s-.286-.071-.4-.095a1.689,1.689,0,0,1-.521-.159,1.274,1.274,0,0,1-.19-.311c-.071-.149-.193-.369-.27-.489a2.267,2.267,0,0,1-.14-.235,1.5,1.5,0,0,0-.132-.192,4.827,4.827,0,0,1-.545-.91.877.877,0,0,1-.012-.67,4.537,4.537,0,0,0,.139-.464,3.9,3.9,0,0,0,.066-1.16c0-.484-.02-1.206-.042-1.6s-.034-.783-.028-.856a17.615,17.615,0,0,0-.147-1.816c-.014-.08-.05-.3-.08-.49a2.758,2.758,0,0,0-.275-1.006A11.319,11.319,0,0,1,5.7,16.56a1.572,1.572,0,0,1-.009-1.045.507.507,0,0,1,.216-.244.9.9,0,0,0,.3-.351,5.3,5.3,0,0,0,.468-.957,4.024,4.024,0,0,0-.068-1.278,1.327,1.327,0,0,0-.436-.706,3.252,3.252,0,0,1-.341-.391,3.192,3.192,0,0,0-.207-.278,3.471,3.471,0,0,1-.209-.278c-.053-.08-.126-.188-.162-.239s-.142-.212-.236-.358-.2-.312-.24-.369l-.16-.239a2.2,2.2,0,0,0-.206-.254,1.18,1.18,0,0,1-.176-.239,1.039,1.039,0,0,0-.106-.172,3.4,3.4,0,0,1-.323-.6c-.047-.108-.095-.215-.107-.237A.621.621,0,0,1,3.657,8.2.76.76,0,0,0,3.6,8.041a.335.335,0,0,1-.038-.125.13.13,0,0,0-.026-.08,4.588,4.588,0,0,1-.194-.688c-.014-.058-.038-.207-.053-.331s-.037-.273-.05-.331a1.6,1.6,0,0,1,.032-.623.3.3,0,0,1,.112-.131c.1-.053.186-.008.644.334a4.335,4.335,0,0,0,.463.315,2,2,0,0,1,.29.184,1.243,1.243,0,0,0,.228.147.887.887,0,0,1,.189.11c.088.061.22.145.294.189A3.607,3.607,0,0,1,6.756,8.235c.088.131.194.288.236.349a.825.825,0,0,1,.076.123c0,.007.116.2.257.433l.344.565a1.723,1.723,0,0,0,.262.3c.1.088.284.271.417.407.265.271.343.323.485.323.12,0,.189-.065.166-.157-.09-.365-.038-.488.484-1.144a.477.477,0,0,1,.392-.232c.205-.015.327.041.681.31.452.343.522.463.494.853-.017.243-.015.255.047.313a.334.334,0,0,0,.348.049c.113-.047.217-.2.342-.522.043-.109.147-.33.23-.49a3.316,3.316,0,0,0,.194-.437,2.862,2.862,0,0,1,.252-.544c.012-.015.1-.214.2-.443a2.568,2.568,0,0,1,.311-.586,2.309,2.309,0,0,0,.191-.279.475.475,0,0,1,.124-.153,8.363,8.363,0,0,0,.876-2.383,6.679,6.679,0,0,1,.543-1.46.649.649,0,0,1,.158-.21.265.265,0,0,1,.153.044,2,2,0,0,1,.846,1.281,6.128,6.128,0,0,1-.013,2.85c-.15.754-.2.985-.335,1.525-.125.5-.592,2.181-.774,2.784-.19.629-.205.543.154.9a2.855,2.855,0,0,1,.63.864c.011.036.1.225.192.418a3.012,3.012,0,0,1,.172.392.207.207,0,0,0,.064.1.336.336,0,0,1,.082.2,7.48,7.48,0,0,0,.289.917c.016.044.039.115.052.159a3.07,3.07,0,0,0,.227.556.7.7,0,0,0,.447.289l.661.186c.282.08.658.181.836.226s.351.093.385.108.276.081.54.148l.937.24,1.133.286c.808.2,1.638.422,2.415.64.171.048.407.111.526.14s.289.073.378.1c.575.155,1.115.28,1.323.306a9.967,9.967,0,0,0,2.171-.051l.324-.038c.052-.006.167-.025.256-.042s.4-.072.688-.122c.655-.113,1.1-.207,1.808-.382.622-.154.789-.193,1.079-.254l.432-.093c.551-.12.765-.163,1.133-.229.215-.038.452-.079.526-.091s.226-.042.337-.066.312-.061.445-.08.316-.048.4-.064.435-.062.769-.1c.552-.07.739-.09,1.147-.122a10.665,10.665,0,0,1,1.255.013c.111.015.251.032.31.037.121.011.631.112.755.149.193.058.6.2.674.228.045.019.179.07.3.114a6.2,6.2,0,0,1,1.012.5,5.235,5.235,0,0,1,1.337,1.015,12.555,12.555,0,0,1,.981,1.186l.343.451c.059.076.123.165.406.566a8.609,8.609,0,0,1,.593.917,4.147,4.147,0,0,1,.479,2.108c.018.362.061.817.1,1.034a4.8,4.8,0,0,0,.326.992c.1.225.727,1.427.8,1.539a1.751,1.751,0,0,1,.141.278,3.61,3.61,0,0,0,.405.721c.093.136.213.326.268.42s.164.28.243.411.224.388.322.57.228.4.288.49a3.838,3.838,0,0,1,.212.358,3.343,3.343,0,0,0,.18.311,2.28,2.28,0,0,0,.811.6c.2.1.406.207.466.24a3.85,3.85,0,0,0,.931.185,3.227,3.227,0,0,1,1.444.5,3.555,3.555,0,0,1,1.29,1.378,4.168,4.168,0,0,1,.253.411A.7.7,0,0,0,54.7,35a.412.412,0,0,1,.071.263,2.041,2.041,0,0,1-.673.247c-.115.017-.524.031-.933.032h-.728l-.254-.086a1.9,1.9,0,0,0-.314-.086.144.144,0,0,1-.1-.044,1.512,1.512,0,0,0-.212-.158,6.55,6.55,0,0,1-.8-.618,2.17,2.17,0,0,0-.26-.214,1.363,1.363,0,0,1-.2-.16,3.7,3.7,0,0,0-.329-.256,8.465,8.465,0,0,1-1.6-1.691,5.135,5.135,0,0,0-.466-.618.389.389,0,0,1-.1-.159.713.713,0,0,0-.141-.22,1.93,1.93,0,0,1-.217-.32,1.033,1.033,0,0,0-.116-.192.726.726,0,0,1-.1-.154,1.775,1.775,0,0,0-.1-.168,1.938,1.938,0,0,1-.1-.172c-.081-.15-.142-.26-.392-.706-.084-.149-.152-.278-.152-.287a1.031,1.031,0,0,0-.09-.153c-.05-.075-.146-.233-.214-.349s-.153-.26-.19-.318a.973.973,0,0,1-.087-.172,1,1,0,0,0-.1-.189c-.046-.068-.12-.186-.165-.262-.249-.426-.281-.467-.343-.444a.266.266,0,0,0-.069.143c-.018.071-.082.314-.142.54l-.146.544c-.109.406-.156.566-.267.915-.067.212-.154.461-.191.555a1.283,1.283,0,0,0-.069.2,1.287,1.287,0,0,1-.093.216,1.354,1.354,0,0,0-.112.3.857.857,0,0,1-.067.214,3.031,3.031,0,0,0-.13.424,4.468,4.468,0,0,0-.135.7c-.015.117-.04.29-.054.385-.024.16-.051.546-.107,1.511a9.794,9.794,0,0,0,.05,1.692c.037.122.216.569.285.71a.971.971,0,0,1,.067.159.667.667,0,0,0,.053.13.76.76,0,0,1,.053.126.847.847,0,0,0,.053.133c.028.062.09.2.136.311s.106.247.135.3.119.261.2.451.18.4.215.477.089.192.119.265.115.27.189.438.166.387.207.488l.073.183-.074.307c-.041.169-.1.415-.136.546a21.427,21.427,0,0,0-.456,2.625,20.674,20.674,0,0,0,0,2.8l.03.318c.009.095.032.327.051.517a6.388,6.388,0,0,1,.02.809A5.894,5.894,0,0,0,45,48.974c.045.191.165.782.21,1.034a2.324,2.324,0,0,1,0,.783,1.931,1.931,0,0,1-.4.723c-.093.117-.219.277-.28.356a.767.767,0,0,1-.341.256,1.722,1.722,0,0,1-.332.128,1.561,1.561,0,0,0-.226.06l-.124.044,0,.189a1.163,1.163,0,0,0,.033.271,2.816,2.816,0,0,1,.047.446l.018.364-.084.176a1.546,1.546,0,0,1-.147.252,1.829,1.829,0,0,0-.125.176,1.46,1.46,0,0,1-.866.469,2.111,2.111,0,0,1-.742.077,7.075,7.075,0,0,1-.769-.049ZM28.6,34.8c.021-.007.2-.019.4-.027.416-.017.951-.058,1.228-.095.1-.014.262-.031.351-.038s.247-.025.351-.04l.283-.039c.306-.041.815-.13.931-.163.074-.021.2-.051.283-.066a3.443,3.443,0,0,0,.535-.146,2.319,2.319,0,0,0,1.024-.567c.153-.16.023-.394-.269-.484a5.449,5.449,0,0,0-.615-.115L32.876,33c-.285-.031-.89-.052-1.538-.054-.807,0-2.693.035-3.184.062a18.951,18.951,0,0,1-2.266-.033c-.569-.075-1.539-.2-1.9-.241-.185-.022-.556-.071-.823-.108s-.6-.079-.742-.094-.317-.037-.391-.051-.226-.032-.337-.041-.336-.033-.5-.053a10.042,10.042,0,0,0-1.518-.044.671.671,0,0,0-.42.168c-.035.055.065.3.187.457a2.635,2.635,0,0,0,.648.5.576.576,0,0,1,.148.091.1.1,0,0,0,.063.037.553.553,0,0,1,.138.054,2.753,2.753,0,0,0,.269.11c.089.031.213.079.275.108a.819.819,0,0,0,.175.06.756.756,0,0,1,.143.04c.045.017.214.067.378.11l.432.116c.223.063.579.141.836.185l.459.08c.119.021.3.045.394.052a2.656,2.656,0,0,1,.31.043c.128.028.711.109.793.11.022,0,.119.011.216.024s.242.028.324.035l.634.054c.267.023.583.046.7.052.278.012,1.775-.005,1.824-.021ZM9.376,27.589a2.9,2.9,0,0,0,1.053-.277,1.36,1.36,0,0,0,.4-.375,3.244,3.244,0,0,0,.273-.819,13.973,13.973,0,0,0,.254-1.695c.029-.27.067-.556.085-.636a1.546,1.546,0,0,0,.016-.382.976.976,0,0,0-.159-.517,1.774,1.774,0,0,0-.4-.545,2.257,2.257,0,0,0-.86-.578,1.83,1.83,0,0,0-.624-.151,3.61,3.61,0,0,1-.374-.054,1.24,1.24,0,0,0-.5-.017,1.2,1.2,0,0,0-.962.381c-.238.245-.258.4-.181,1.36a3.945,3.945,0,0,1,0,1.127c-.044.226-.19.839-.232.978a1.115,1.115,0,0,0-.04.269c0,.155-.017.129.492.768a.978.978,0,0,1,.246.48.769.769,0,0,0,.567.654,2.244,2.244,0,0,0,.583.057l.364-.026Zm.668-1.064a.48.48,0,0,1-.265-.365q-.049-.381.382-.426c.109-.011.182-.032.191-.054a.307.307,0,0,0-.043-.151c-.069-.141-.071-.184-.007-.24.113-.1.23-.036.331.183a1.09,1.09,0,0,1,.067.7.561.561,0,0,1-.656.349ZM11.79,19.03a3.187,3.187,0,0,0,.76-.511,1.522,1.522,0,0,0,.507-1,3.665,3.665,0,0,0-.2-1.069c-.129-.194-.478-.23-.905-.094a1.268,1.268,0,0,0-.578.316,1.368,1.368,0,0,0-.457,1.172,2.092,2.092,0,0,1,.017.265,1.484,1.484,0,0,0,.049.289.871.871,0,0,0,.456.625c.12.079.168.08.351.005Zm.135-1.115a.317.317,0,0,1-.185-.422,2.377,2.377,0,0,1,.226-.262A.866.866,0,0,0,12.2,16.9a.265.265,0,0,1,.265-.223c.094,0,.1.007.157.139a1.742,1.742,0,0,1,.107.658c-.019.2-.092.27-.371.38s-.292.108-.432.058Z" transform="translate(-3.222 -3.222)"/>
</svg>
