<svg xmlns="http://www.w3.org/2000/svg" width="44.271" height="49.856" viewBox="0 0 44.271 49.856">
  <g id="Group_1" data-name="Group 1" transform="translate(-2.864 -0.115)">
    <path id="Path_1" data-name="Path 1" d="M2.921,9.981c.283.856,1.2.769,1.569.813s.806-.407.806-.407A9.811,9.811,0,0,0,5.41,8.333a12.768,12.768,0,0,1-.462-2.5c.087-.33.741-2.109.741-2.109A12.775,12.775,0,0,0,4.1,5.828c-.174.527-.48,1.67-.654,2.285S2.681,9.256,2.921,9.981Z"/>
    <path id="Path_2" data-name="Path 2" d="M7.055,2.115c.12.093.712-.278.959-.234s.523.114.523.114S8.45.548,7.8.533,6.866,1.969,7.055,2.115Z"/>
    <path id="Path_3" data-name="Path 3" d="M15.222,31.293a3.649,3.649,0,0,1,2.151.879,6.091,6.091,0,0,1,1.22,3.281c.029.879-.116,3.34,0,4.189a21.684,21.684,0,0,0,.843,2.841,26.242,26.242,0,0,1-.611,3.691s-.146-2.549-.319-3.691-.976-2.607-1.171-3.515-.079-1.67-.282-2.578-1.134-1.846-1.308-2.783S15.222,31.293,15.222,31.293Z"/>
    <path id="Path_4" data-name="Path 4" d="M35.421,34.457a5.853,5.853,0,0,1,1.686,1.553c.378.732,0,3.222,0,3.222s-2.151,4.746-2.528,5.508-1.8,3.808-1.8,3.808h2.15a1.013,1.013,0,0,1,.552-.791c.494-.205,0-1.143.465-1.23a7.216,7.216,0,0,0,1.33-.439c.268-.117-.2-1.611.239-2.49S38.53,40.17,39.2,39.76a4.639,4.639,0,0,0,1.1-.967,7.779,7.779,0,0,1-.116-2.812,3.112,3.112,0,0,1,.872-1.318l-1.773-3.31A10.988,10.988,0,0,1,37.977,33.4,25.26,25.26,0,0,1,35.421,34.457Z"/>
    <path id="Path_5" data-name="Path 5" d="M46.756,39.994a8.714,8.714,0,0,0,.305-3.208c-.218-.835-1.657-4.453-1.4-5.676a77.481,77.481,0,0,0,.305-7.815c0-1.274-1.438-3.164-1.438-3.164a9.211,9.211,0,0,0,1.351-2.2c.305-.923-.349-.571-.349-.571a2.543,2.543,0,0,0-.828-2.022,11.445,11.445,0,0,0-3.1-1.626s2.006,1.553,2.223,3.208c.034.255-.566.56-1.133.791-1.179.48-6.234-.615-8.763-.571s-7.28.615-7.89.4a15.185,15.185,0,0,1-3.139-1.933c-.611-.571-3.967-.967-3.967-.967l-2.528-2.966a3.127,3.127,0,0,1-1.177,0A3.814,3.814,0,0,1,12.752,9.74,17.535,17.535,0,0,1,12.6,6.8,12.116,12.116,0,0,0,11.226,4.2a10.8,10.8,0,0,1,1.635,2.329c.262.791-.2,2.768.174,3.1S14.6,11.41,15.3,11.41a1.968,1.968,0,0,0,1.635-2.988c-.981-2.153-2.747-3.164-3.008-3.889A3.005,3.005,0,0,0,12.622,3.28s1.09-1.912,1.788-1.978a18.954,18.954,0,0,1,3.292.615S15.738.182,14.387.116s-3.64,2.351-3.64,2.351a19.3,19.3,0,0,0-3.4-.088c-.741.176-.85,1.252-1.134,1.56a3.142,3.142,0,0,0-.785,1.933,10.555,10.555,0,0,1,.284,2.373c-.022.791-.218,3.442-.109,4.006.074.379.483.609.76.775a4.194,4.194,0,0,0,.429-.1c.229-.077,1.177-.33,1.384-.417A6.281,6.281,0,0,0,9,11.872a4.63,4.63,0,0,1-.708.89,6.787,6.787,0,0,1-.9.33c-.2.059-.449.135-.656.208a4.875,4.875,0,0,0,1.049.653c.349.117,1.714-.527,1.714-.527s1.046,2.7,1.453,3.984,1.569,3.076,1.86,3.984-.058,3.076.2,3.867.93,3.486,1.308,4.219a4.925,4.925,0,0,0,2.5,1.787,3.272,3.272,0,0,1,1.831,2.022c.029.586.509,2.754.509,3.808s-.087,2.241,0,3.12.915,1.933.654,3.34-1.744,6.416-1.744,6.416H20.6a6.689,6.689,0,0,1,1.177-1.318c.436-.264-.218-1.055,0-1.67a3.73,3.73,0,0,0,.349-1.582,15.289,15.289,0,0,1-.392-3.384c.131-1.186.829-2.241.916-2.988s-.872-2.812-.741-3.647.784-2.637,1.438-2.988,1.351.835,2.747,1.011,5.929,1.011,8.152.747a9.1,9.1,0,0,0,4.011-1.582,12.234,12.234,0,0,0,1.133-2.5s1.569,4.218,2.354,5.054a11.167,11.167,0,0,1,2.311,2.944c.218.791.7,5.537.392,6.5s-1.513,3.984-1.513,3.984h2.1s.283-2.095.806-2.534a5.188,5.188,0,0,0,.916-1.319C47.018,44.345,46.537,41.225,46.756,39.994ZM11.052,6.6c-.291.176-1.148,0-1.148,0s-.043-.864.319-1,.872-.1.944.132S11.342,6.421,11.052,6.6Z"/>
    <path id="Path_6" data-name="Path 6" d="M10.879,5.988a.187.187,0,0,1,.036.372l-.523.051a.187.187,0,0,1-.036-.372Z"/>
  </g>
</svg>
