<svg xmlns="http://www.w3.org/2000/svg" width="51" height="46.41" viewBox="0 0 51 46.41">
  <g id="Group_1" data-name="Group 1" transform="translate(-6 -8.59)">
    <path id="Path_1" data-name="Path 1" d="M28.053,38.23l-3.224-.645-1.9,1.9-.911,5.467L24.764,55h2.382l.218-1.389-.817-.407a1.005,1.005,0,0,1-.519-.632l-1.993-7.309a1,1,0,0,1,.117-.793Z"/>
    <path id="Path_2" data-name="Path 2" d="M10,32.3a11.306,11.306,0,0,1,2.485-7.04A8.507,8.507,0,0,0,6,33.531V46l.23-.308a6.958,6.958,0,0,0,1.192-2.5L9.03,36.757a.945.945,0,0,1,.062-.176l.936-2.028c-.008-.168-.028-.336-.028-.5Z"/>
    <path id="Path_3" data-name="Path 3" d="M47.993,52.13a1,1,0,0,1-.133-.455l-.67-15.33c-.041.031-.075.068-.117.1L45.1,37.923,46.9,55h2.075l-.031-1.219Z"/>
    <path id="Path_4" data-name="Path 4" d="M52.8,10.98a1,1,0,0,1-.429-.2L50.3,9.114a2.379,2.379,0,0,0-1.489-.524h-1.94l-1.327,4.643A3.815,3.815,0,0,1,41.876,16H40.639A14.537,14.537,0,0,1,34.5,21.588,14.957,14.957,0,0,1,27.959,23H21.3a9.281,9.281,0,0,0-6.242,2.4A9.6,9.6,0,0,0,12,32.577v1.466a9.317,9.317,0,0,0,.873,3.938l1.366,2.93.086.29L16.206,55h2.087l.473-1.334-.8-1.094a1,1,0,0,1-.191-.508L17,43.085a1,1,0,0,1,.289-.792l4-4,1.031-1.031,1.469-1.469a1,1,0,0,1,.9-.273l12.5,2.5A1,1,0,0,1,38,39V55h2.391l.076-1.3-.718-1.49a1,1,0,0,1-.094-.539L41.006,38.9a1,1,0,0,1,.394-.7l4.474-3.355a7,7,0,0,0,2.777-6.159L48.2,22.994A6.434,6.434,0,0,1,54.552,16,2.421,2.421,0,0,0,57,13.6V11.82ZM49,12a1,1,0,1,1,.707-.293A1,1,0,0,1,49,12Z"/>
    <path id="Path_5" data-name="Path 5" d="M43.621,12.684,44.674,9H44.5a1.917,1.917,0,0,0-1.555.8l-3,4.2h1.933a1.822,1.822,0,0,0,1.743-1.316Z"/>
  </g>
</svg>
