<svg xmlns="http://www.w3.org/2000/svg" width="51" height="36" viewBox="0 0 51 36">
  <path id="Path_1" data-name="Path 1" d="M28.723,21.934l1.726,10.461a.882.882,0,0,1-.044.441.873.873,0,0,1-.252.362,2.817,2.817,0,0,0-.948,1.56.335.335,0,0,1-.118.189.327.327,0,0,1-.209.072H25.955a1.4,1.4,0,0,1,.466-.834,1.365,1.365,0,0,1,.888-.331h1.18a.219.219,0,0,0,.116-.033.223.223,0,0,0,.082-.09,4.793,4.793,0,0,0,.41-3.005A19.276,19.276,0,0,0,27.859,26a4.708,4.708,0,0,1-.514-1.657A6.912,6.912,0,0,0,26.8,22.47a10.185,10.185,0,0,1-.791-2.252A19.43,19.43,0,0,0,28,18.063a4.212,4.212,0,0,0,1.167.563A5.97,5.97,0,0,0,28.723,21.934ZM41.275,32.24a.878.878,0,0,1-.236.476,3.462,3.462,0,0,0-1.02,1.976.34.34,0,0,1-.108.214.332.332,0,0,1-.221.088H36.4a1.366,1.366,0,0,1,.457-.813,1.335,1.335,0,0,1,.868-.323h1.125a.218.218,0,0,0,.117-.034.221.221,0,0,0,.082-.091c.134-.275,3.275-6.751,3.219-8.8a3.331,3.331,0,0,0-1.507-2.458,6.655,6.655,0,0,1-2-2.6l-.86-1.946a10.849,10.849,0,0,0,2.111-1.5,6.386,6.386,0,0,0,1.912,2.335,4.453,4.453,0,0,1,1.573,2,7.294,7.294,0,0,0,2.238,2.885C42.2,28.257,41.437,31.189,41.275,32.24ZM4.549,2.61a.719.719,0,0,1-.18-.146.726.726,0,0,1,.468-.106.76.76,0,0,1,.343.154C4.911,2.68,4.734,2.721,4.549,2.61ZM50.421,23.472c-3.248-1.83-3.716-3.429-2.384-8.147a10.235,10.235,0,0,0,.409-3.408,6.634,6.634,0,0,1,.3,1.542,6,6,0,0,0,1.113,3.073,2.193,2.193,0,0,0,.17,1.647,3.573,3.573,0,0,1,.245,1.749.052.052,0,0,0,.009.034.051.051,0,0,0,.028.021.05.05,0,0,0,.035,0,.051.051,0,0,0,.025-.025,4.763,4.763,0,0,0,.579-2.655,1.72,1.72,0,0,0-.724-1.015s0-.008-.007-.012a5.588,5.588,0,0,1-1.033-2.84A11.032,11.032,0,0,0,47.659,9.06l0-.009a6.237,6.237,0,0,0-3.359-2.886,11.84,11.84,0,0,1-3.874-2.714C38.564,1.754,36.644,0,33.5,0c-2.246,0-3.586,1.083-5,2.228A10.311,10.311,0,0,1,22.988,4.94c-1.753.229-2.394,1.384-3.071,2.6-.819,1.474-1.667,3-4.491,2.76-2.112-.179-3.882-1.661-5.118-4.286A16.282,16.282,0,0,1,9.143,2.481a1.754,1.754,0,0,1-.249.164.219.219,0,0,1-.169.011A.222.222,0,0,1,8.6,2.543a.227.227,0,0,1-.011-.171A.223.223,0,0,1,8.7,2.243a1.465,1.465,0,0,0,.7-.8A1.488,1.488,0,0,0,9.378.378a1.194,1.194,0,0,0-.743.409,1.222,1.222,0,0,0-.292.8.226.226,0,0,1-.061.155.22.22,0,0,1-.305.016A.225.225,0,0,1,7.9,1.614,1.625,1.625,0,0,1,7.97,1.04,3,3,0,0,0,5.193.527c-.27.135-.572.313-.89.5a8.68,8.68,0,0,1-2.668,1.2,1.262,1.262,0,0,0-.483.2,1.279,1.279,0,0,0-.361.384c-.019.032-.049.091-.084.166a1.9,1.9,0,0,0,.73-.168A.219.219,0,0,1,1.6,2.782a.221.221,0,0,1,.138.1.226.226,0,0,1,.028.169.224.224,0,0,1-.1.14A2.685,2.685,0,0,1,.5,3.438a8.769,8.769,0,0,1-.5,1,1.178,1.178,0,0,0,.883.187A6.317,6.317,0,0,0,2.115,4.1a.22.22,0,0,1,.3.036.226.226,0,0,1-.02.309,6.139,6.139,0,0,1-1.357.606l-.012.005H1.018C.873,5.1.758,5.142.7,5.161L.61,5.186c-.17.047-.227.063-.307.249a.262.262,0,0,0,0,.154.26.26,0,0,0,.084.128.183.183,0,0,0,.21.046c.035-.02.073-.042.113-.067a1.959,1.959,0,0,1,1.618-.352,4.73,4.73,0,0,0,3.3-.084,1.641,1.641,0,0,0,.624-.4,1.667,1.667,0,0,0,.389-.634.224.224,0,0,1,.1-.141.219.219,0,0,1,.246,0,.222.222,0,0,1,.06.063.226.226,0,0,1,.03.169,1.971,1.971,0,0,1-.907,1.158C7.3,9.565,9.3,12.548,12.127,14.355a12.373,12.373,0,0,0,6.363,1.9,2.935,2.935,0,0,1,1.947.785,3,3,0,0,1,.943,1.894,1.778,1.778,0,0,1-.278,1.234L19.864,21.9a2.408,2.408,0,0,0-.442,1.57c.133,1.029,1.243,9.792.591,11.035a.221.221,0,0,1-.077.084.218.218,0,0,1-.108.034l-1.285.065a1.5,1.5,0,0,0-.941.4,1.536,1.536,0,0,0-.48.91h3.052a.563.563,0,0,0,.367-.14.575.575,0,0,0,.189-.347,5.736,5.736,0,0,1,.545-1.475,1.244,1.244,0,0,0,.129-.616l-.379-7.912a2.852,2.852,0,0,1,.22-1.211,2.821,2.821,0,0,1,.709-1l3.587-3.25a18.978,18.978,0,0,0,2.623-2.926,4.107,4.107,0,0,0,.895-2.1.227.227,0,0,1,.025-.086.222.222,0,0,1,.057-.069.22.22,0,0,1,.167-.048.222.222,0,0,1,.084.029.224.224,0,0,1,.066.06.227.227,0,0,1,.041.171,4.553,4.553,0,0,1-.977,2.31c-.08.111-.163.221-.246.331.376.27,1.665.975,4.874,1.007h.076a10.126,10.126,0,0,0,6.6-2.73,9.553,9.553,0,0,1-.506-2.213.226.226,0,0,1,.046-.165.219.219,0,0,1,.311-.038.225.225,0,0,1,.083.149,6.108,6.108,0,0,0,2.445,4.7,4.867,4.867,0,0,1,1.7,2.193c.274.772,1.175,2.337,4.137,4.148a1.442,1.442,0,0,1,.558.633,1.464,1.464,0,0,1,.112.84,25.448,25.448,0,0,0,.062,5.788,1.732,1.732,0,0,1-.17.96l-.685,1.5a.223.223,0,0,1-.081.094.219.219,0,0,1-.118.036l-1.154.009a1.623,1.623,0,0,0-1.133.347A1.661,1.661,0,0,0,44.833,36H48.2a.338.338,0,0,0,.222-.086.345.345,0,0,0,.112-.212,4.6,4.6,0,0,1,1.153-2.237.855.855,0,0,0,.212-.671c-.247-1.985.479-6.087,1-8.2a1.011,1.011,0,0,0-.051-.641A1,1,0,0,0,50.421,23.472ZM8.67,1.5a1.581,1.581,0,0,0,.113-.309A.146.146,0,0,1,8.852,1.1a.143.143,0,0,1,.11-.013.144.144,0,0,1,.087.069.148.148,0,0,1,.013.111,1.781,1.781,0,0,1-.151.39.144.144,0,0,1-.052.049.142.142,0,0,1-.069.018A.138.138,0,0,1,8.711,1.7a.146.146,0,0,1-.062-.092A.147.147,0,0,1,8.67,1.5Zm-2.521.912a1.549,1.549,0,0,0-.589.309,1.474,1.474,0,0,1-.8.356.71.71,0,0,1-.369-.107.8.8,0,0,1-.25-.21.807.807,0,0,1-.146-.294A.89.89,0,0,1,4.1,1.834a.222.222,0,0,1,.117-.093.219.219,0,0,1,.149,0,.222.222,0,0,1,.113.1.226.226,0,0,1,.027.148.883.883,0,0,1,.384-.026,1.043,1.043,0,0,1,.556.293,1.556,1.556,0,0,1,.639-.287.219.219,0,0,1,.162.044.226.226,0,0,1,.044.311.221.221,0,0,1-.144.088Zm8.471,11.95a.223.223,0,0,1-.081.105.22.22,0,0,1-.126.04.217.217,0,0,1-.078-.014,10.069,10.069,0,0,1-3.657-2.559.227.227,0,0,1,.028-.308.22.22,0,0,1,.305.014,9.792,9.792,0,0,0,3.479,2.434.219.219,0,0,1,.073.046.222.222,0,0,1,.05.071.226.226,0,0,1,.005.171Zm1.693.434a.224.224,0,0,1-.075.134.219.219,0,0,1-.143.053.2.2,0,0,1-.036,0,6.728,6.728,0,0,1-.826-.212.222.222,0,0,1-.076-.041.225.225,0,0,1,.038-.371.22.22,0,0,1,.083-.025.218.218,0,0,1,.086.009,6.461,6.461,0,0,0,.767.2.221.221,0,0,1,.143.089.226.226,0,0,1,.04.165Zm30.81-1.12a5.054,5.054,0,0,1-.227.955.222.222,0,0,1-.114.127.219.219,0,0,1-.169.008.22.22,0,0,1-.074-.045.226.226,0,0,1-.059-.241,4.577,4.577,0,0,0,.2-.861.225.225,0,0,1,.084-.149.22.22,0,0,1,.311.041.226.226,0,0,1,.044.166Zm.12-1a.225.225,0,0,1-.075.136.22.22,0,0,1-.144.054h-.033a.221.221,0,0,1-.144-.09.227.227,0,0,1-.039-.167,4.847,4.847,0,0,0-2.192-4.368.224.224,0,0,1-.1-.148.228.228,0,0,1,0-.09.225.225,0,0,1,.037-.082.222.222,0,0,1,.066-.06.22.22,0,0,1,.252.02,5.285,5.285,0,0,1,2.365,4.8Z"/>
</svg>
