<svg xmlns="http://www.w3.org/2000/svg" width="51" height="51" viewBox="0 0 51 51">
  <path id="Path_1" data-name="Path 1" d="M12.355,36.186h6.007L12.752,40.37V50.887H10.315L8.558,38.957Zm21.819,1.979,2.89,12.722H39.5L37.518,35.621a11.752,11.752,0,0,1-2.437.565Zm16.1-22.786-.964.792a2.712,2.712,0,0,1-1.587.565h-3.91l-1.474,11.2a8.21,8.21,0,0,1-2.72,5.089,8.351,8.351,0,0,1-5.384,2.035L31.794,40.6,31.227,51H28.79l-.737-10.573L25.5,35H11.958L4.534,40.37V50.887H2.1L0,35l1.644-1.583V26.292A1.643,1.643,0,0,1,0,24.652v-1.3A7.611,7.611,0,0,1,2.437,17.81a7.478,7.478,0,0,1,5.044-1.922H25.5L30.49,11.93a7.8,7.8,0,0,1-1.3-4.241A7.655,7.655,0,0,1,44.149,5.371l.907.4a4.673,4.673,0,0,1,1.927,1.7l3.684,5.428A1.793,1.793,0,0,1,50.27,15.379ZM43.242,6.672a6.477,6.477,0,1,0-6.4,7.463,6.09,6.09,0,0,0,2.21-.4l-.227-.339a2.416,2.416,0,0,0-1.87-1.018h-.057a3.7,3.7,0,0,1,.113-7.407,3.76,3.76,0,0,1,3.06,1.583A30.3,30.3,0,0,0,43.242,6.672Zm-6.971-.283a2.5,2.5,0,0,0-1.7,2.318l2.154-1.7Zm9.578,4.127-.737-1.074a.865.865,0,0,0-.68-.4H42.789L42.9,9.5a1.212,1.212,0,0,0,1.19.961C44.262,10.517,45.849,10.517,45.849,10.517Z"/>
</svg>
