<svg xmlns="http://www.w3.org/2000/svg" width="55" height="47" viewBox="0 0 55 47">
  <path id="Path_1" data-name="Path 1" d="M53.993,10.025a16.685,16.685,0,0,0-3.7-7.035c-.55-.438,0-2.99,0-2.99A4.331,4.331,0,0,0,47.82,2.325a.025.025,0,0,0-.015-.008A6.836,6.836,0,0,0,43.956,1.1a.112.112,0,0,0-.076.2,4.916,4.916,0,0,1,.58.505.111.111,0,0,1-.076.186A7.45,7.45,0,0,0,40.1,3.641a.112.112,0,0,0,.076.2,4.4,4.4,0,0,1,1,.049.111.111,0,0,1,.035.208c-.94.508-4.367,2.473-5.148,4.52a.114.114,0,0,0,.153.144c.262-.119.711-.312,1.176-.468a.113.113,0,0,1,.125.176,10.857,10.857,0,0,0-.834,1.156l-.046.068c-.755,1.246-1.169,2.416-1.719,3.481a6.944,6.944,0,0,1-3.8,3.435h-.008c-7.907.725-14.8-2.559-18.891-1.419a9.886,9.886,0,0,0-4.216,2.144,6.492,6.492,0,0,0-1.933.355c-1.337.484-2.338,2.084-2.995,3.412a13.293,13.293,0,0,0-1.131,4.31c-.244,2.092-.313,4.348-1.39,6.107a.144.144,0,0,0,.183.2,2.432,2.432,0,0,0,1.047-.967,12.571,12.571,0,0,1-1.162,4.53,5.3,5.3,0,0,1-.6.868.144.144,0,0,0,.191.211,8.754,8.754,0,0,0,2.865-2.771,12.105,12.105,0,0,0,.832-1.841c.13-.332.26-.68.39-1.012a6.738,6.738,0,0,0,.6-2.326c.07.445.131.9.2,1.344a.142.142,0,0,0,.267.045,6.337,6.337,0,0,0,.8-2.536,9.121,9.121,0,0,0-.267-2.71,9.514,9.514,0,0,1,.474-4.635,2.336,2.336,0,0,1,.794-1.132c.038-.022.068-.045.107-.068a12,12,0,0,0-.818,4.273c.054,5.6,5.019,4.431,3.277,13.543a1.686,1.686,0,0,0,.153.883,38.309,38.309,0,0,1,1.818,7.738.747.747,0,0,0,.428.551,3.1,3.1,0,0,1,1.322,1.216.137.137,0,0,0,.145.076h2.551a.173.173,0,0,0,.169-.219A5.724,5.724,0,0,0,14.2,43.573a.988.988,0,0,1-.344-.462,16.347,16.347,0,0,1-.909-6.22c.466-2.25,1.993-4.084,3.2-5.994h.007c1.383-2.167,2.36-4.432.895-7.466a.37.37,0,0,1,.656-.34.792.792,0,0,1,.038.083,6.916,6.916,0,0,1,.306,5.638c3.483,1.563,7.685,4.394,14.079,2.061.3-.106.6-.226.916-.363l.046-.392V30.1c.107-1.11.207-2.1.313-3.035a.2.2,0,0,1,.008-.076.376.376,0,0,1,.374-.294.366.366,0,0,1,.367.37.175.175,0,0,1-.008.068c-.122,1.042-.221,2.038-.313,3.035v.008l-.015.083c-.4,4.288.3,8.311.5,11.92-.038.831-.649,2.521-.115,3.156a2.124,2.124,0,0,1,1.39,1.533.174.174,0,0,0,.176.136h2.459a.167.167,0,0,0,.153-.234,3.127,3.127,0,0,0-1.718-1.653c-1.024-1.049-.62-3.374-.428-4.816l1.384-3.888c.061-.452.427-.777.6-1.207a79.467,79.467,0,0,1,4.53-9.633l.007.008a18.38,18.38,0,0,0,1.933-3.238,19.755,19.755,0,0,0,1.39-3.759c.084-.355.161-.687.206-1a4.569,4.569,0,0,0,.015-1.8c-.71-2.612-.626-4.515.543-5.436a6.535,6.535,0,0,1-.994-2.2.363.363,0,0,1,.283-.431.369.369,0,0,1,.443.287,5.837,5.837,0,0,0,.917,1.97l.45.627a7,7,0,0,0,3.582,2.151c-.16.815.711,1.48,1.314,1.548a.4.4,0,0,0,.092.007,2.413,2.413,0,0,0,2-1.359A3.55,3.55,0,0,0,53.993,10.025ZM50.112,6.816a.6.6,0,0,1-.611-.6.615.615,0,1,1,.611.6Z"/>
</svg>
