<svg id="Group_1" data-name="Group 1" xmlns="http://www.w3.org/2000/svg" width="37.685" height="55.942" viewBox="0 0 37.685 55.942">
  <path id="Path_1" data-name="Path 1" d="M22.555,31.607a34.365,34.365,0,0,1,5.366-6.165c.529-.481,1.069-.962,1.6-1.421a42.713,42.713,0,0,0,3.195-3.01,17.328,17.328,0,0,0,4.275-7.988c.394-1.824.034-7.362-3.217-10.2C31.914,1.2,29.383.638,26.222,1.13a5.75,5.75,0,0,1,.034.638,5.918,5.918,0,0,1-1.339,3.6C22.217,13.057,22.285,24.312,22.555,31.607Z"/>
  <path id="Path_2" data-name="Path 2" d="M18.111,9.018a11.5,11.5,0,0,1-3.172-1.309c2.283,9.163,1.732,21.224,1.451,27.344-.034.649-.056,1.242-.079,1.768h4.612c-.023-.515-.045-1.119-.079-1.768-.281-6.131-.833-18.181,1.451-27.344a11.446,11.446,0,0,1-3.161,1.309L19.1,10.293c.326.806,1.631,3.088,1.26,3.289a12.806,12.806,0,0,1-1.744-1.757,12.149,12.149,0,0,1-1.744,1.757c-.371-.2.911-2.417,1.237-3.211Z"/>
  <path id="Path_3" data-name="Path 3" d="M4.511,21a40.523,40.523,0,0,0,3.195,3.01c.529.459,1.069.94,1.6,1.421A34.756,34.756,0,0,1,14.669,31.6c.27-7.295.337-18.55-2.362-26.248a5.918,5.918,0,0,1-1.339-3.6A5.749,5.749,0,0,1,11,1.108C7.829.615,5.3,1.175,3.453,2.8.214,5.639-.158,11.166.236,13A17.411,17.411,0,0,0,4.511,21Z"/>
  <path id="Path_4" data-name="Path 4" d="M18.618,7.216a6.831,6.831,0,0,0,3.543-1.656c.832-.682,2.239-2.081,2.239-3.8A1.837,1.837,0,0,0,24.017.392c-.517-.481-1.89-.4-3.352-.336-.653.034-1.327.067-2.059.067S17.211.09,16.548.056C16.03.022,15.513,0,15.04,0a2.841,2.841,0,0,0-1.834.392,1.837,1.837,0,0,0-.383,1.365C12.824,4.733,17.031,7.216,18.618,7.216Zm4.207-5.27a2.517,2.517,0,0,1,.056.526c0,.727-.315,1.32-.7,1.32s-.664-.537-.7-1.22A7.332,7.332,0,0,0,22.825,1.947Zm-8.414,0a7.229,7.229,0,0,0,1.327.627c-.023.682-.326,1.22-.7,1.22s-.7-.593-.7-1.32A3.523,3.523,0,0,1,14.41,1.947Z"/>
  <path id="Path_5" data-name="Path 5" d="M5.535,40.737a2.447,2.447,0,0,0,2.441,2.428H29.259a2.428,2.428,0,1,0,0-4.856H7.976A2.447,2.447,0,0,0,5.535,40.737Z"/>
  <path id="Path_6" data-name="Path 6" d="M2.463,47.1A2.447,2.447,0,0,0,4.9,49.531H32.341a2.428,2.428,0,1,0,0-4.856H4.9A2.447,2.447,0,0,0,2.463,47.1Z"/>
  <path id="Path_7" data-name="Path 7" d="M34.794,51.086H2.441a2.428,2.428,0,1,0,0,4.856H34.794a2.428,2.428,0,1,0,0-4.856Z"/>
  <path id="Path_8" data-name="Path 8" d="M30.024,37.358a2.645,2.645,0,0,1,2.509,1.712,2.171,2.171,0,0,1,.112.425.183.183,0,0,0,.349.045l1.249-2.618L30.6,35.2l-.855,1.779a.265.265,0,0,0,.247.38Z"/>
  <path id="Path_9" data-name="Path 9" d="M36.762,32.043a.719.719,0,0,0-.338-.951l-2.677-1.264a.726.726,0,0,0-.956.336.719.719,0,0,0,.338.951l2.677,1.264A.717.717,0,0,0,36.762,32.043Z"/>
  <path id="Path_10" data-name="Path 10" d="M35.873,33.912a.719.719,0,0,0-.338-.951L32.859,31.7a.727.727,0,0,0-.956.336.719.719,0,0,0,.338.951l2.677,1.264A.717.717,0,0,0,35.873,33.912Z"/>
  <path id="Path_11" data-name="Path 11" d="M34.973,35.78a.719.719,0,0,0-.337-.951l-2.677-1.264A.726.726,0,0,0,31,33.9a.719.719,0,0,0,.337.951l2.677,1.264A.707.707,0,0,0,34.973,35.78Z"/>
  <path id="Path_12" data-name="Path 12" d="M37.145,29.929a.719.719,0,0,0-.337-.951l-1.654-.783a.727.727,0,0,0-.956.336.719.719,0,0,0,.338.951l1.654.783A.717.717,0,0,0,37.145,29.929Z"/>
  <path id="Path_13" data-name="Path 13" d="M37.28,25.89a.726.726,0,0,0-.956.336l-.72,1.51,1.294.615.72-1.51A.719.719,0,0,0,37.28,25.89Z"/>
</svg>
