<svg xmlns="http://www.w3.org/2000/svg" width="36" height="50" viewBox="0 0 36 50">
  <path id="Path_1" data-name="Path 1" d="M35.647,18.048a7.622,7.622,0,0,0-2.683-3.716,7.714,7.714,0,0,0-4.478-1.363,9.141,9.141,0,0,0-3.23.618A14.608,14.608,0,0,0,21.88,5.5,16.443,16.443,0,0,0,13.649.465c-.405-.114-.814-.212-1.224-.307A4.384,4.384,0,0,0,11.227,0a2.912,2.912,0,0,0-2,.946,2.823,2.823,0,0,0-.7,2.073,4.97,4.97,0,0,0,.814,2.073q.065.109.133.216a4.977,4.977,0,0,0-2,.316,3.4,3.4,0,0,0-1.365,1.1,3.3,3.3,0,0,0-.068,3.761,8.816,8.816,0,0,0,2.172,2.174,13.751,13.751,0,0,0,3.534,1.849,10.533,10.533,0,0,0,1.76.5c.234.039.466.083.7.13a29.9,29.9,0,0,1,3.256.838,18.5,18.5,0,0,1,2.487.979,38.525,38.525,0,0,0-6.875,7.1,39.416,39.416,0,0,0-4.851,8.6,42.461,42.461,0,0,0-2.611,9.485c-.011.071-.03.052-.1.061l-.131.017q-.129.018-.257.04-.271.046-.538.11a7.12,7.12,0,0,0-.958.3,5.729,5.729,0,0,0-1.605.948A5.76,5.76,0,0,0,.181,46.793a7.427,7.427,0,0,0-.143,2.367c.023.22.062.438.095.657C.144,49.9.113,50,.2,50H27.239a.986.986,0,0,0,.94-.677,1.441,1.441,0,0,0-.119-.94,3.939,3.939,0,0,0-.471-.894,4.111,4.111,0,0,0-.595-.671q-.146-.132-.3-.252c.064-.194.122-.39.17-.588a18.507,18.507,0,0,0,.328-1.949,17.929,17.929,0,0,0,.136-3.442,47.074,47.074,0,0,0-1.658-8.415,8.934,8.934,0,0,1-.307-2.433,5.8,5.8,0,0,1,.365-2.189,2.684,2.684,0,0,1,1.425-1.383,5.03,5.03,0,0,1,1.753-.331,9.476,9.476,0,0,0,4.52-1.317,5.353,5.353,0,0,0,2.51-3.639,5.8,5.8,0,0,0-.287-2.832ZM5.032,48.354H1.678A4.959,4.959,0,0,1,2.534,45.5a4.363,4.363,0,0,1,2.833-1.613C5.187,45.368,5.079,46.86,5.032,48.354ZM13.8,13.391A11.211,11.211,0,0,1,7.847,10.1a2.775,2.775,0,0,1-.618-.958A1.667,1.667,0,0,1,7.743,7.39a2.906,2.906,0,0,1,1.98-.444q.3,0,.591,0l.289.009.143.006.129.14q.42.449.88.859a14.429,14.429,0,0,0,1.949,1.461c.354.221.717.429,1.087.624.216.114.444.206.665.311a32.389,32.389,0,0,1,4.127,2.327,16.923,16.923,0,0,1,2.932,2.4q-.5.333-.992.687l-.117.085-.1-.058-.209-.113q-.23-.121-.465-.235a19.115,19.115,0,0,0-1.862-.774,28.987,28.987,0,0,0-3.4-.978c-.519-.117-1.043-.234-1.571-.31C13.951,13.413,10.173,12.585,13.8,13.391ZM25.018,48.422H23.393c-.05,0-.041,0-.041-.053a2.858,2.858,0,0,0-1.785-2.722,6.132,6.132,0,0,0-2.226-.192H18.187a1.058,1.058,0,0,1-.889-.288.821.821,0,0,1,.458-1.329,3.678,3.678,0,0,1,.74-.018h2.036c.114,0,.228,0,.342.013q.145.012.289.032c.064.009.269.076.309.031a7.465,7.465,0,0,0,.514-.641,4.982,4.982,0,0,0,.894-1.9,3.009,3.009,0,0,0-1.917-3.279,5.187,5.187,0,0,0-3.235.166,12.116,12.116,0,0,0-2.943,1.23A10.8,10.8,0,0,0,12,41.824a15.185,15.185,0,0,0-1.183,1.7.849.849,0,0,1-1.472-.082.99.99,0,0,1,.178-.987q.267-.444.569-.866a12.468,12.468,0,0,1,4-3.6,14.258,14.258,0,0,1,5.066-1.719,4.852,4.852,0,0,1,3.791,1.1,4.6,4.6,0,0,1,1.641,3.617,6.3,6.3,0,0,1-1.536,3.6,4.425,4.425,0,0,1,1.5,1.7A4.68,4.68,0,0,1,25.018,48.422Zm4.074-30.178A.933.933,0,1,1,30,17.311.931.931,0,0,1,29.092,18.244Z"/>
</svg>
