<svg id="Group_1" data-name="Group 1" xmlns="http://www.w3.org/2000/svg" width="53.546" height="43.367" viewBox="0 0 53.546 43.367">
  <path id="Path_1" data-name="Path 1" d="M32.368,31.8s-2.062.807-3.138,1.076l-.986,10.311H33.8l2.331-7.621C36.134,35.476,33.713,32.428,32.368,31.8Z"/>
  <path id="Path_2" data-name="Path 2" d="M53.528,6.426,41.6.956s-5.559-2.152-7.532,0A41.722,41.722,0,0,0,30.216,4s-7.442-.269-8.877.359c0,0-21.16,3.317-21.34,23.94,0,0,3.049-8.518,3.945-9.235L1.793,43.277H7.352L12.194,32.7s5.828,4.214,20.084-1.883a5.032,5.032,0,0,1,2.6,1.524s2.69,1.7,6.366,10.939h6.1S43.935,30.366,42.859,29.11l-.9-1.793s-.628-1.883-4.573-3.5l-8.339-4.573L25.374,9.833A2.842,2.842,0,0,1,26.63,8.488l-.538,1.166,3.856,8.608,10.58,5.918s3.049-4.752-.448-15.243l3.049-.179s-2.062.538-1.524,3.5c0,0,.807,3.407,1.345,7.711a9.523,9.523,0,0,1,2.242.986L46,19.7l6.1,3.228s-4.573-.179-5.828-1.255c0,0,3.855,2.959,3.586,10.939,0,0-.717.986-1.166-.09,0,0,.717-7.173-4.3-10.4l-1.524,1.435s3.049,2.331,2.959,5.738v3.855a4.236,4.236,0,0,0,3.228,3.138h1.793a3.891,3.891,0,0,0,2.69-4.035Zm-5.021,8.428-.359-1.345,1.972,1.076.09.179h-1.7Z"/>
  <path id="Path_3" data-name="Path 3" d="M12.732,33.862s-1.255,2.69-1.435,2.869c0,0,2.242,4.035,2.331,6.635h5.828s-.359-5.738-1.345-8.339C18.022,35.028,13.36,34.311,12.732,33.862Z"/>
</svg>
