<svg id="Group_1" data-name="Group 1" xmlns="http://www.w3.org/2000/svg" width="52" height="52.663" viewBox="0 0 52 52.663">
  <path id="Path_1" data-name="Path 1" d="M32.333,51.428c-.741-.247-1.4-.412-2.141-.659-2.553-.576-2.47-.576-3.129-3.294-.165-.576-.247-1.153-.412-1.729a8.135,8.135,0,0,1-3.211-1.729c.329,1.4.659,2.717,1.071,4.035,1.153,4.2,2.223,4.611,5.517,4.611A20.177,20.177,0,0,0,32.25,52.5a.522.522,0,0,0,.494-.412A.578.578,0,0,0,32.333,51.428Z"/>
  <path id="Path_2" data-name="Path 2" d="M29.945,44.1l.576-.247s0-5.435-12.6-9.634c0,1.317.412,5.764,2.964,6.752C24.51,42.452,26.322,45.828,29.945,44.1Z"/>
  <path id="Path_3" data-name="Path 3" d="M40.732,51.016a12.012,12.012,0,0,0-1.565-.576c-1.812-.412-1.647-.494-2.059-2.388-.247-.988-.412-1.894-.659-2.8a3.828,3.828,0,0,1-1.729.412,1.812,1.812,0,0,1-.659-.082L33.65,45.5a35.183,35.183,0,0,0,1.482,5.023,3.449,3.449,0,0,0,3.788,1.812,9.875,9.875,0,0,0,1.647-.247.822.822,0,0,0,.412-.329C41.226,51.51,41.061,51.181,40.732,51.016Z"/>
  <path id="Path_4" data-name="Path 4" d="M46.414,8.032a.659.659,0,1,0-.659-.659A.659.659,0,0,0,46.414,8.032Z"/>
  <path id="Path_5" data-name="Path 5" d="M41.226,23.1a.362.362,0,0,1-.082-.412l1.4-3.623-5.682,1.153c-.165,0-.329,0-.412-.165a.367.367,0,0,1,0-.412l1.812-3.376H34.227a21.976,21.976,0,0,1-8.975,2.717A7.963,7.963,0,0,1,17.593,15.2c-1.565-2.635-4.364-5.6-8.811-5.764-.082,0-.165.082-.082.165a13.954,13.954,0,0,1,3.541,6.423c0,.082-.082.165-.165.082a9.483,9.483,0,0,0-9.058-3.623c-.082,0-.082.165,0,.165,1.07.247,3.623,1.153,4.694,3.211,0,.082,0,.165-.082.165-.988-.247-4.694-1.153-7.576.412-.082.082-.082.165.082.165H.3a7.831,7.831,0,0,1,6.505,4.117,13.873,13.873,0,0,0,5.27,5.6c3.788,1.812,11.693,0,11.363.165a20.863,20.863,0,0,1-7.823,1.482,17.557,17.557,0,0,1-3.047-.247c.659,2.717,2.306,5.929,6.587,6.835a20.181,20.181,0,0,1,11.363,6.505l1.071,1.812A2.648,2.648,0,0,0,33.321,44.1l.988.165A2.567,2.567,0,0,0,36.7,43.44c1.4-1.729,3.952-5.105,4.364-8.317a1.488,1.488,0,0,1,1.153-1.318c1.482-.494,4.117-2.553,4.529-11.528l-5.105.988C41.473,23.266,41.308,23.266,41.226,23.1Z"/>
  <path id="Path_6" data-name="Path 6" d="M51.766,3.586a.081.081,0,0,0-.082-.082.348.348,0,0,0-.576-.082l-.659.906-.165-2.47c0-.329-.412-.412-.576-.082l-.329.659c-.165.247-.576.165-.576-.082L48.719.374a.3.3,0,0,0-.576-.082L47.4,2.021a.317.317,0,0,1-.576,0L46.084.21c-.165-.329-.576-.247-.576.082V1.61a.321.321,0,0,1-.576.165l-.412-.412c-.247-.247-.576-.082-.494.247a9.03,9.03,0,0,0,.741,2.47c-1.812.576-5.105,2.388-7.493,8.564a7.866,7.866,0,0,1-1.812,2.717H38.92a.428.428,0,0,1,.329.165.367.367,0,0,1,0,.412L37.6,19.149,43.2,18c.165,0,.329,0,.412.165a.362.362,0,0,1,.082.412l-1.482,3.705,4.364-.906c0-.165-.082-.329-.082-.494a7.575,7.575,0,0,1,.329-3.87,4.778,4.778,0,0,0,0-2.635,6.76,6.76,0,0,1-.082-4.035,7.519,7.519,0,0,1,3.129,1.976A5.9,5.9,0,0,0,48.061,9.1c.082,0,.165-.082.329-.082,1.07.741,2.47,3.458,2.47,3.458a4.846,4.846,0,0,0-1.482-4.858V7.538A2.861,2.861,0,0,0,51.766,3.586ZM46.414,8.773a1.443,1.443,0,0,1-1.4-1.4,1.4,1.4,0,1,1,2.8,0A1.388,1.388,0,0,1,46.414,8.773Z"/>
</svg>
