<svg xmlns="http://www.w3.org/2000/svg" width="28.771" height="49.835" viewBox="0 0 28.771 49.835">
  <g id="Group_1" data-name="Group 1" transform="translate(-12.615 -2.283)">
    <path id="Path_1" data-name="Path 1" d="M16.772,20.783c.288-.353.631-.754,1.022-1.18l.124-1.628c-.448.483-.759.867-.893,1.038Q16.87,19.884,16.772,20.783Z"/>
    <path id="Path_2" data-name="Path 2" d="M18.115,44.5l-.6.194a.825.825,0,0,0-.413.3.836.836,0,0,0,0,.979.826.826,0,0,0,.415.3c2.094.646,2.821.083,3.069-.311a8.921,8.921,0,0,0,.66-2.284H19.073a1.641,1.641,0,0,1-.958.819Z"/>
    <path id="Path_3" data-name="Path 3" d="M13.281,9.055l-.4.169a1.3,1.3,0,0,0,1.021.5h1.13a3.515,3.515,0,0,1,2.56,1.422,3.365,3.365,0,0,1,.443.916c.918.086,3.505.191,5.169-1.1a1.66,1.66,0,0,1-.038-.487,12.06,12.06,0,0,0-.714-2.9,5.385,5.385,0,0,1-1.034,1.353.525.525,0,0,1-.744-.05.534.534,0,0,1,.05-.75,4.523,4.523,0,0,0,1.241-2.166c0-.014.006-.028.01-.043a4.925,4.925,0,0,0-.66-3.643L19.231,4.51a1.942,1.942,0,0,1-1.413.616H15.872a.737.737,0,0,0-.493.189l-2.347,2.1a1.321,1.321,0,0,0-.418.765l.262-.109a.525.525,0,0,1,.578.112.532.532,0,0,1-.175.869ZM20.118,6a1.891,1.891,0,0,0,.385-1.5.53.53,0,0,1,.172-.562.525.525,0,0,1,.584-.054.534.534,0,0,1,.256.316,2.938,2.938,0,0,1-.539,2.423.527.527,0,0,1-.343.218.524.524,0,0,1-.4-.092.531.531,0,0,1-.213-.348.535.535,0,0,1,.095-.4Zm-4.6.363a2.623,2.623,0,0,1,1.924-.609l.02,0a.526.526,0,0,1,.359.188.533.533,0,0,1-.067.75.525.525,0,0,1-.387.12l-.021,0a1.57,1.57,0,0,0-1.15.364.525.525,0,0,1-.739-.068.534.534,0,0,1,.06-.745Z"/>
    <path id="Path_4" data-name="Path 4" d="M19.917,17.562l.117-1.545c-.346.271-.671.548-.97.821l-.121,1.6Q19.432,17.968,19.917,17.562Z"/>
    <path id="Path_5" data-name="Path 5" d="M24.861,13.9a6.3,6.3,0,0,0-1.576.3l-.108,1.281a7.669,7.669,0,0,1,2.152-.586A9.22,9.22,0,0,0,24.861,13.9Z"/>
    <path id="Path_6" data-name="Path 6" d="M24.048,12.589c-.147-.222-.285-.431-.407-.632a8.165,8.165,0,0,1-4.586,1.219c-.32,0-.606-.013-.84-.03a8.149,8.149,0,0,1-.441,2.807c-.095.3-.182.6-.265.909,1.467-1.508,3.939-3.579,6.741-3.965Z"/>
    <path id="Path_7" data-name="Path 7" d="M22.071,16.038l.117-1.39a10.707,10.707,0,0,0-1.037.58L21.04,16.7Q21.559,16.331,22.071,16.038Z"/>
    <path id="Path_8" data-name="Path 8" d="M26.112,52.074l.285-.8c-.308-.039-.6-.086-.86-.141L25.171,52C25.484,52.029,25.8,52.055,26.112,52.074Z"/>
    <path id="Path_9" data-name="Path 9" d="M41.287,37.9a14.111,14.111,0,0,0-2.728-9.908,23.267,23.267,0,0,0-8.3-7.1c-.337-.174-.653-.332-.958-.484-1.864-.93-3.21-1.6-3.426-3.356a8.869,8.869,0,0,0-.208-1.111c-4.175.291-8.213,5.636-8.923,6.619a7.143,7.143,0,0,0,1.146,3.2,8.173,8.173,0,0,1,1.365,4.533v10.3H21.79c.389-2.539.771-5.643,1.081-8.622a1.923,1.923,0,0,1,.368-.947,1.874,1.874,0,0,1,1.517-.766h0a1.875,1.875,0,0,1,1.519.772,11.61,11.61,0,0,1,1.873,3.364,6.448,6.448,0,0,1,4.148-.962.526.526,0,0,1,.356.191.534.534,0,0,1-.071.748.525.525,0,0,1-.386.119,5.3,5.3,0,0,0-4.158,1.323,5.255,5.255,0,0,0-1.7,3.867,4.872,4.872,0,0,0,4.641,5.148l.48.01a.526.526,0,0,1,.37.163.532.532,0,0,1-.188.863.524.524,0,0,1-.2.036l-7.618-.156a.617.617,0,0,0-.445.179.629.629,0,0,0,0,.891.6.6,0,0,0,.437.181l9.124.008C39.238,46.994,40.875,40.647,41.287,37.9ZM20.232,27.882a.525.525,0,0,1-.543-.222.534.534,0,0,1-.08-.191l-.125-.61a5.826,5.826,0,0,0-.738-1.909.533.533,0,0,1,.169-.732.526.526,0,0,1,.726.17,6.886,6.886,0,0,1,.875,2.256l.125.609a.535.535,0,0,1-.076.4A.528.528,0,0,1,20.232,27.882ZM36.992,30.4a.534.534,0,0,1-.026-.751.525.525,0,0,1,.745-.026A9.93,9.93,0,0,1,39.869,36.1a.533.533,0,0,1-.168.348.525.525,0,0,1-.357.141.349.349,0,0,1-.042,0,.526.526,0,0,1-.359-.185.535.535,0,0,1-.124-.387A8.933,8.933,0,0,0,36.992,30.4Z"/>
    <path id="Path_10" data-name="Path 10" d="M27.486,51.371l-.267.744a21.571,21.571,0,0,0,2.177-.076c4.435-.391,6.492-2.019,7.437-3.315L37,48.5a7.446,7.446,0,0,0,1.169-2.188c-.082.063-.165.124-.249.184a8.355,8.355,0,0,1-.872.539C35.041,50.7,30.661,51.522,27.486,51.371Z"/>
    <path id="Path_11" data-name="Path 11" d="M21.621,41.649H19.254v.966h2.2C21.51,42.309,21.565,41.986,21.621,41.649Z"/>
    <path id="Path_12" data-name="Path 12" d="M20.793,51.1a18.917,18.917,0,0,0,3.288.763l.431-1.011c-.082-.031-.158-.062-.227-.094a3.828,3.828,0,0,1-.8-.544A2.389,2.389,0,0,0,21,49.623a4.1,4.1,0,0,0-1.256.549,1.383,1.383,0,0,0-.374.368,3.869,3.869,0,0,0,1.1.458C20.584,51.034,20.7,51.068,20.793,51.1Z"/>
  </g>
</svg>
