<svg xmlns="http://www.w3.org/2000/svg" xmlns:xlink="http://www.w3.org/1999/xlink" width="51" height="64" viewBox="0 0 51 64">
  <defs>
    <clipPath id="clip-path">
      <rect id="Rectangle_1" data-name="Rectangle 1" width="51" height="64" fill="#fff"/>
    </clipPath>
  </defs>
  <g id="Group_1" data-name="Group 1" clip-path="url(#clip-path)">
    <path id="Path_1" data-name="Path 1" d="M37.692,27.248a.6.6,0,0,0,.052.036,2.4,2.4,0,0,0,2.749.1l.606.312a.387.387,0,0,0,.319.02.378.378,0,0,0,.231-.224l.251-.608.566.276a.391.391,0,0,0,.514-.152l.355-.58.506.224a.38.38,0,0,0,.3.008.414.414,0,0,0,.223-.212l.2-.452.574.284a.383.383,0,0,0,.331.008.394.394,0,0,0,.223-.248l.207-.652.713.312a.4.4,0,0,0,.53-.228l.231-.612.578.292a.427.427,0,0,0,.307.02.415.415,0,0,0,.231-.2l.295-.612.4.24a.4.4,0,0,0,.55-.14l.339-.588a1.892,1.892,0,0,1,.7-.548.4.4,0,0,0,.207-.5,2.6,2.6,0,0,0-1.068-1.356,1.556,1.556,0,0,0-1.036-.148l-7.339,1.44a1.983,1.983,0,0,0-2.247-.544,2.727,2.727,0,0,1-1.4-.136,2.979,2.979,0,0,0-1.936.052,5.513,5.513,0,0,0-.781.372,1.7,1.7,0,0,1-1.283.316c-1.144-.436-2.885.252-3.431.492a27.43,27.43,0,0,0-18.38.06,1.865,1.865,0,0,1-1.3.172.726.726,0,0,1-.363-1.052c.582-1.044,3.112-1.86,4.048-2.088,4.028-1.092,9.045-2.452,12.866-5.08,3.506-2.4,3.546-4.436,3.546-4.52a.4.4,0,0,0-.245-.367.4.4,0,0,0-.432.083c-2.339,2.324-5.809,2.944-9.16,3.38-.677.088-1.359.168-2.04.252a54.5,54.5,0,0,0-8.415,1.468A14.563,14.563,0,0,0,.319,26.032a11.229,11.229,0,0,0-.2,4.3A5.511,5.511,0,0,0,4.6,35.1c.06-.152.128-.3.191-.448A3.7,3.7,0,0,0,5,34.124c-.02-.02-.052-.048-.064-.06a.4.4,0,0,1-.008-.568.392.392,0,0,1,.562-.008c.008,0,.012.012.016.016a.854.854,0,0,1,.291.62,2.507,2.507,0,0,1-.283.864c-.016.032-.028.072-.044.108-.056.124-.112.248-.163.38-.494,1.276-.956,2.48.179,3.9a7.155,7.155,0,0,0,1.4,1.288c.207.136.45.2.626-.024l-.012-.012c.092-.1.223-.264.426-.528a2.218,2.218,0,0,1-.171-.732.4.4,0,0,1,.226-.382.4.4,0,0,1,.567.342,1.3,1.3,0,0,0,.211.628.514.514,0,0,1,.044.08l.861.24a.395.395,0,0,0,.434-.156l.514-.732a2.516,2.516,0,0,1-.151-.672.4.4,0,0,1,.378-.42.393.393,0,0,1,.287.1.4.4,0,0,1,.131.276,1.27,1.27,0,0,0,.211.628.366.366,0,0,1,.044.088l.191.072a.409.409,0,0,0,.446-.116,3.206,3.206,0,0,0,.506-2.64c-.112-.952-1.151-1.332-2.008-1.488a.393.393,0,0,1-.263-.192c-.128-.232.044-.492.115-.712a4.9,4.9,0,0,0,.223-1.036.394.394,0,0,1,.041-.15.389.389,0,0,1,.386-.214.4.4,0,0,1,.366.432,5.394,5.394,0,0,1-.251,1.2A2.817,2.817,0,0,1,13.28,36c.167,0,.335.008.506.008a22.488,22.488,0,0,0,2.976-.212,3.858,3.858,0,0,1,1.8-3.624.4.4,0,1,1,.41.684,3.052,3.052,0,0,0-1.387,2.108,2.308,2.308,0,0,0,.088,1.284,3.169,3.169,0,0,0,.916,1.088c.39.332.725.624.745,1.04,0,.02,0,.036.008.052.191,1.056.566,2.328,1.287,2.372h.024a.391.391,0,0,0,.283-.12l.446-.456a.383.383,0,0,1-.084-.264.65.65,0,0,0-.223-.464.4.4,0,0,1,.49-.632A1.427,1.427,0,0,1,22.1,40.02l.351.28a.4.4,0,0,0,.307.08.394.394,0,0,0,.267-.168l.406-.588c0-.012,0-.02,0-.028a.62.62,0,0,0-.223-.464.4.4,0,0,1-.064-.56.393.393,0,0,1,.554-.068,1.429,1.429,0,0,1,.526,1.012l.351.12a.4.4,0,0,0,.49-.2l.235-.5s0-.012,0-.016a.634.634,0,0,0-.223-.464A.4.4,0,0,1,25,37.9a.393.393,0,0,1,.554-.068,1.426,1.426,0,0,1,.526,1l.215.084a.442.442,0,0,0,.386-.052c.319-.228.41-1.372.41-1.38-.028-1.416-1.2-1.836-1.968-2.112a4.112,4.112,0,0,1-1.387-.708l-.024-.024a.489.489,0,0,1,.088-.816,1.569,1.569,0,0,1,.53-.212.407.407,0,0,0,.315-.472.4.4,0,1,1,.781-.152,1.2,1.2,0,0,1-.709,1.336,4.974,4.974,0,0,0,.673.292,5.086,5.086,0,0,1,1.534.788,22.5,22.5,0,0,0,8.04-1.624s.331-.136.606-.256c.068-.041.151-.062.223-.1A2.157,2.157,0,0,0,36.8,32.376a.4.4,0,0,1,.095-.124.4.4,0,0,1,.659.329.4.4,0,0,1-.041.151,3.316,3.316,0,0,1-.482.724c2.49.064,8,.176,12.288.028a.341.341,0,0,0,.108-.02A2.24,2.24,0,0,0,51,31.516a.41.41,0,0,0-.147-.312l-1.135-.916a.395.395,0,0,0-.454-.028l-.47.284-.287-.488a.4.4,0,0,0-.53-.152l-.5.264-.159-.4a.4.4,0,0,0-.227-.228.412.412,0,0,0-.323.016l-.542.276-.279-.58a.4.4,0,0,0-.231-.208.409.409,0,0,0-.307.024l-.538.272-.215-.476a.395.395,0,0,0-.494-.208,8.014,8.014,0,0,1-6.411-.484,8.163,8.163,0,0,0-2.116-1.048A1.9,1.9,0,0,1,37.692,27.248Zm1.072-3.392.63-.244a.208.208,0,0,1,.147,0l.594.24a.162.162,0,0,1,.108.157.162.162,0,0,1-.116.151l-.614.224a.2.2,0,0,1-.136,0l-.614-.224a.16.16,0,0,1,0-.308ZM24.44,14.5l.187-.072a.4.4,0,0,1,.51.237.4.4,0,0,1-.231.515,3.221,3.221,0,0,1-.327.092.4.4,0,0,1-.139-.772Zm-1.893.636.382-.12a.4.4,0,0,1,.5.26.4.4,0,0,1-.259.5s-.47.14-.506.14a.411.411,0,0,1-.382-.284.4.4,0,0,1,.263-.5Zm-1.924.544.39-.1a.4.4,0,0,1,.485.287.4.4,0,0,1-.281.489s-.462.116-.494.116a.4.4,0,0,1-.1-.788Zm-1.948.46.391-.088a.4.4,0,1,1,.175.78s-.454.1-.482.1a.4.4,0,0,1-.084-.788Zm-1.968.4.395-.076a.4.4,0,0,1,.466.314.4.4,0,0,1-.31.47l-.4.076A.4.4,0,0,1,16.391,17a.4.4,0,0,1,.061-.3.4.4,0,0,1,.254-.168Zm-1.984.376.4-.076a.4.4,0,0,1,.147.788l-.394.076a.41.41,0,0,1-.466-.32.4.4,0,0,1,.315-.468Zm-1.988.4.4-.084a.4.4,0,0,1,.476.466.4.4,0,0,1-.168.257.4.4,0,0,1-.144.061,2.37,2.37,0,0,1-.474.092.4.4,0,0,1-.4-.357.4.4,0,0,1,.31-.435Zm-1.984.516c.132-.04.263-.076.394-.116a.4.4,0,1,1,.219.768,1.968,1.968,0,0,1-.494.132.411.411,0,0,1-.383-.284.4.4,0,0,1,.263-.5ZM8.427,26.74l.458-.24A.121.121,0,0,1,9,26.5a.106.106,0,0,1,.056.092l-.012.5a.11.11,0,0,1-.112.1.112.112,0,0,1-.06-.016l-.446-.26a.1.1,0,0,1,0-.184Zm-2.379-4.9c.052-.136.112-.264.175-.4a.4.4,0,0,1,.713.348c-.052.116-.1.232-.151.348a.4.4,0,0,1-.518.22.4.4,0,0,1-.219-.52Zm-.462,2.1a3.945,3.945,0,0,1,.036-.432.4.4,0,1,1,.789.092c-.012.124-.024.248-.028.376a.4.4,0,1,1-.8-.036Zm.785,2.4a.408.408,0,0,1-.5-.26c-.044-.136-.084-.276-.116-.416a.4.4,0,0,1,.291-.484.4.4,0,0,1,.482.292c.028.12.064.244.1.364a.4.4,0,0,1-.259.5Zm1.1,1.684a.4.4,0,0,1-.562-.032,4,4,0,0,1-.279-.352.4.4,0,0,1,.649-.464c.072.1.147.2.223.284a.4.4,0,0,1-.032.564Zm.295-7.492a.4.4,0,0,1-.606-.524c.092-.108.187-.212.291-.316a.4.4,0,0,1,.562-.008.408.408,0,0,1,.008.568A3.351,3.351,0,0,0,7.766,20.532Zm1.486,8.424a.4.4,0,0,1-.51.244c-.139-.052-.271-.1-.406-.168a.4.4,0,1,1,.335-.724c.108.048.223.1.339.136a.4.4,0,0,1,.243.512Zm.131-3.364a.106.106,0,0,1-.06.092.124.124,0,0,1-.052.012.112.112,0,0,1-.06-.016l-.45-.26a.1.1,0,0,1-.052-.092.11.11,0,0,1,.06-.092L9.228,25a.122.122,0,0,1,.112,0,.106.106,0,0,1,.056.092Zm.151-6.444c-.116.052-.223.112-.335.176a.4.4,0,0,1-.512-.59.394.394,0,0,1,.118-.1c.124-.072.247-.14.379-.2a.4.4,0,0,1,.574.335.4.4,0,0,1-.224.385Zm.881,10.408a.4.4,0,1,1,.076-.8c.127.012.255.02.382.028a.4.4,0,0,1,.276.131.4.4,0,0,1,.1.289C11.228,29.664,10.722,29.584,10.415,29.556ZM11.69,26.74a.11.11,0,0,1-.112.1.112.112,0,0,1-.06-.016l-.446-.26a.1.1,0,0,1-.039-.147.1.1,0,0,1,.043-.037l.458-.24a.121.121,0,0,1,.112,0,.1.1,0,0,1,.056.092Zm1.219,2.78c-.135.016-.434.036-.442.036a.4.4,0,0,1-.4-.368.4.4,0,0,1,.37-.428l.395-.036a.4.4,0,0,1,.39.211.4.4,0,0,1-.165.54A.4.4,0,0,1,12.91,29.52Zm.745-4.556.462-.24a.122.122,0,0,1,.111,0,.111.111,0,0,1,.052.092l-.012.5a.1.1,0,0,1-.056.092.127.127,0,0,1-.056.012.091.091,0,0,1-.056-.016l-.45-.256a.1.1,0,0,1-.052-.1.106.106,0,0,1,.056-.092Zm0,1.96a.106.106,0,0,1,0-.184l.462-.24a.122.122,0,0,1,.111,0,.111.111,0,0,1,.052.092l-.012.5a.106.106,0,0,1-.056.092.127.127,0,0,1-.056.012.091.091,0,0,1-.056-.016Zm1.283,2.32c-.131.02-.442.068-.462.068a.4.4,0,0,1-.06-.8l.394-.06a.4.4,0,0,1,.453.486.4.4,0,0,1-.179.248A.4.4,0,0,1,14.934,29.244Zm1.04-3.468a.129.129,0,0,1-.056-.016l-.45-.26a.106.106,0,0,1-.04-.038.107.107,0,0,1-.015-.054.114.114,0,0,1,.06-.092l.458-.24a.13.13,0,0,1,.115,0,.113.113,0,0,1,.052.1l-.012.5a.1.1,0,0,1-.056.088A.091.091,0,0,1,15.974,25.776Zm.952,3.14s-.442.072-.462.072A.4.4,0,0,1,16.4,28.2l.4-.068a.4.4,0,0,1,.3.069.4.4,0,0,1-.17.719Zm.677-2.532a.11.11,0,0,1-.06.092.124.124,0,0,1-.052.012.112.112,0,0,1-.06-.016l-.45-.26a.111.111,0,0,1-.052-.092.11.11,0,0,1,.056-.092l.462-.24a.111.111,0,0,1,.112,0,.1.1,0,0,1,.056.092Zm0-1.776a.105.105,0,0,1-.06.092.124.124,0,0,1-.052.012.112.112,0,0,1-.06-.016l-.45-.26a.1.1,0,0,1-.052-.092.117.117,0,0,1,.017-.053.115.115,0,0,1,.039-.039l.462-.24a.122.122,0,0,1,.112,0,.106.106,0,0,1,.056.092Zm1.307,4s-.434.064-.454.064a.4.4,0,0,1-.06-.8l.4-.06a.4.4,0,0,1,.3.076.4.4,0,0,1-.184.716Zm.669-3.276a.113.113,0,0,1,.018-.054.111.111,0,0,1,.042-.038L20.1,25a.121.121,0,0,1,.112,0,.107.107,0,0,1,.056.092l-.012.5a.105.105,0,0,1-.06.092.11.11,0,0,1-.052.012.112.112,0,0,1-.06-.016l-.446-.26a.1.1,0,0,1-.056-.092Zm1.315,3.036c-.132.012-.426.04-.438.04a.4.4,0,0,1-.04-.8c.135-.016.271-.028.406-.04a.389.389,0,0,1,.291.088.392.392,0,0,1,.139.272.4.4,0,0,1-.21.391A.4.4,0,0,1,20.894,28.364Zm1.928-2.932a.108.108,0,0,1,.056.1l-.012.5a.1.1,0,0,1-.056.088.1.1,0,0,1-.056.016.091.091,0,0,1-.056-.016l-.45-.26a.106.106,0,0,1-.04-.038.107.107,0,0,1-.015-.054.114.114,0,0,1,.06-.092l.458-.24a.122.122,0,0,1,.111,0Zm-.9-1.088a.106.106,0,0,1,.056-.092l.462-.24a.122.122,0,0,1,.112,0,.111.111,0,0,1,.052.092l-.008.5a.114.114,0,0,1-.06.092.127.127,0,0,1-.056.012.091.091,0,0,1-.056-.016l-.45-.26a.094.094,0,0,1-.052-.092Zm.952,3.92-.406.008a.4.4,0,0,1-.008-.8l.41-.008h0a.4.4,0,0,1,0,.8Zm2.016.06c-.008,0-.291-.02-.422-.024a.4.4,0,0,1,.036-.8l.41.024a.4.4,0,0,1-.024.8Zm.546-1.92a.1.1,0,0,1-.056.092.14.14,0,0,1-.056.012.127.127,0,0,1-.056-.012l-.45-.26a.1.1,0,0,1,0-.184l.458-.24a.119.119,0,0,1,.116,0,.113.113,0,0,1,.052.1Zm0-1.8a.1.1,0,0,1-.056.092.14.14,0,0,1-.056.012.091.091,0,0,1-.056-.016l-.45-.26a.1.1,0,0,1-.056-.092.12.12,0,0,1,.06-.092l.458-.24a.13.13,0,0,1,.116,0,.11.11,0,0,1,.052.092Zm2.992.52.462-.24a.122.122,0,0,1,.112,0,.1.1,0,0,1,.039.039.1.1,0,0,1,.013.053l-.008.5a.114.114,0,0,1-.06.092.127.127,0,0,1-.056.012.091.091,0,0,1-.056-.016l-.45-.256a.1.1,0,0,1-.052-.1.106.106,0,0,1,.056-.092Zm0,1.42.462-.24a.122.122,0,0,1,.112,0,.1.1,0,0,1,.052.092l-.008.5a.119.119,0,0,1-.06.092.127.127,0,0,1-.056.012.13.13,0,0,1-.056-.016l-.45-.26a.106.106,0,0,1,0-.184Zm-2.036-1.312.462-.24a.122.122,0,0,1,.112,0,.111.111,0,0,1,.038.039.113.113,0,0,1,.014.053l-.012.5a.1.1,0,0,1-.015.054.1.1,0,0,1-.041.038.126.126,0,0,1-.056.012.091.091,0,0,1-.056-.016l-.45-.26a.089.089,0,0,1-.052-.092.107.107,0,0,1,.056-.092Zm.506,3.3c-.02,0-.323-.04-.454-.06a.4.4,0,0,1-.343-.444.4.4,0,0,1,.446-.348c.135.016.271.036.406.056a.4.4,0,0,1-.056.8Zm2.367.08a.4.4,0,0,1-.386.3c-.032,0-.355-.072-.482-.1a.4.4,0,1,1,.175-.784l.4.1a.4.4,0,0,1,.248.181.4.4,0,0,1,.047.3Zm.618-2.848a.114.114,0,0,1,.02-.06.113.113,0,0,1,.048-.04l.538-.256a.143.143,0,0,1,.127,0,.119.119,0,0,1,.064.1l-.012.536a.113.113,0,0,1-.068.1.18.18,0,0,1-.064.012.131.131,0,0,1-.068-.016l-.522-.276a.114.114,0,0,1-.046-.041A.116.116,0,0,1,29.883,25.764Zm.8,3.348h-.2a.4.4,0,0,1,0-.8h.2a.4.4,0,0,1,0,.8Z"/>
  </g>
</svg>
