<svg id="Group_1" data-name="Group 1" xmlns="http://www.w3.org/2000/svg" width="51" height="53.808" viewBox="0 0 51 53.808">
  <path id="Path_1" data-name="Path 1" d="M22.208,10.121a10.273,10.273,0,0,1-.827,2.73,6.625,6.625,0,0,0-.632,3.183,3.175,3.175,0,0,0,1.289,2.12,6.863,6.863,0,0,1,2.825,1.165q.161.117.311.24c-.882-1.346-1.322-2.712-1.289-5.45.007-.575.038-1.169-.006-1.853-.163-2.509-.552-4.3-2.052-6.019-.529-.607-.491-.361-.243.15A6.02,6.02,0,0,1,22.208,10.121Z"/>
  <path id="Path_2" data-name="Path 2" d="M26.227,20.345c.342.372.648.767.962,1.172a12.889,12.889,0,0,0,1.978,2.176c.056-3.823-1.516-7.037-4.47-8.538a5.219,5.219,0,0,0,.386,2.891A19.625,19.625,0,0,0,26.227,20.345Z"/>
  <path id="Path_3" data-name="Path 3" d="M10.308,24.624a11.339,11.339,0,0,0,.967,4.09A7.221,7.221,0,0,0,12.9,31.25c-.024-.166-.049-.331-.072-.494-.14-.963-.2-1.611-.258-2.585a11.825,11.825,0,0,1,.075-3.058c.055-.264.158-.515.213-.775.063-.289-.106-.275-.328-.3A2.982,2.982,0,0,1,10.1,22.46a2.066,2.066,0,0,0,.086.58A12.8,12.8,0,0,1,10.308,24.624Z"/>
  <path id="Path_4" data-name="Path 4" d="M7.946,30.076A6.636,6.636,0,0,0,12.2,31.485a7.344,7.344,0,0,1-1.73-2.687,9.6,9.6,0,0,1-1.157-4.052c0-.1-.717-.352-.8-.39a2.767,2.767,0,0,1-1.121-.784c-.166-.211-.4-.4-.557-.616C5.929,25.172,5.974,28.4,7.946,30.076Z"/>
  <path id="Path_5" data-name="Path 5" d="M13.749,37.109c.2.252.363.094.257-.233-.174-.537-.333-.991-.4-1.19a19.213,19.213,0,0,1-.725-3.293A7.035,7.035,0,0,1,8.443,31.2a4.86,4.86,0,0,1-.983-.82c-.108-.128-.308,0-.25.2a5.046,5.046,0,0,0,.955,1.6,8.909,8.909,0,0,0,2.19,1.831A14.58,14.58,0,0,1,13.749,37.109Z"/>
  <path id="Path_6" data-name="Path 6" d="M7.259,18.139a3.648,3.648,0,0,0-.395,1.319,4.1,4.1,0,0,0,.927,3.035,6.463,6.463,0,0,0,1.517,1.241c.08.049.19.2.289.212.131.014.057-.212.03-.27-.072-.154-.141-.311-.2-.473a4.023,4.023,0,0,1-.142-2.452,6.747,6.747,0,0,1-.342-3.1,8.362,8.362,0,0,1,.126-.851c.033-.163.3-.8.187-.955a5.879,5.879,0,0,0-1.089.992A6.707,6.707,0,0,0,7.259,18.139Z"/>
  <path id="Path_7" data-name="Path 7" d="M1.814,16.892c-.184.306-.5.38-.445.756.071.469.451,1.129.981,1.055a5.623,5.623,0,0,0,1.306-.421,5.66,5.66,0,0,0,1.678-.9A5.781,5.781,0,0,1,2.07,16.1,1.657,1.657,0,0,1,1.814,16.892Z"/>
  <path id="Path_8" data-name="Path 8" d="M1.764,15.79c.027-.215-.537-.727-.622-.907A3.587,3.587,0,0,1,.779,14.1c-.07-.255-.32-.221-.366.027a1.458,1.458,0,0,0,.044.481,2.633,2.633,0,0,0,.569,1.223.618.618,0,0,0,.349.2A.321.321,0,0,0,1.764,15.79Z"/>
  <path id="Path_9" data-name="Path 9" d="M7.657,15.913A.95.95,0,0,0,6.588,14.6,14.469,14.469,0,0,1,8.2,14.237a8.26,8.26,0,0,0,2.45-1.075,4.038,4.038,0,0,0,.974-.8,6.763,6.763,0,0,0,1.183-1.892,6.558,6.558,0,0,1-.091.707,6.916,6.916,0,0,1-.771,2.1,9.176,9.176,0,0,1-1.052,1.342,7.493,7.493,0,0,0-.97,1.466A4.744,4.744,0,0,0,9.431,17.8a5.3,5.3,0,0,0,1.245,3.916A8.368,8.368,0,0,0,12.656,23.3c.1.062.25.257.38.27.169.016.07-.277.035-.35-.1-.2-.188-.4-.271-.61a6.448,6.448,0,0,1-.353-2.572,16.614,16.614,0,0,1,.231-2.572,5.421,5.421,0,0,1,.4-1.568c-.6,3.185.386,4.021,1.021,4.574a5.476,5.476,0,0,0,.594.383,4.72,4.72,0,0,0,.711.377.952.952,0,0,0,.392.117c.189-.022.1-.209,0-.317a2.371,2.371,0,0,1-.279-.682,2.173,2.173,0,0,1,.326-2.124s-.053-.085-.072-.124a4.89,4.89,0,0,1-.321-2.989,9.115,9.115,0,0,1,1.067-2.052,3.9,3.9,0,0,0,.461-1.947,5.022,5.022,0,0,0-.218-1.054c-.023-.1-.057-.169-.085-.254a2.627,2.627,0,0,0-.14-.258.1.1,0,0,1,.044-.137c.239-.121.546.91.583,1.047a4.657,4.657,0,0,1-.468,3.432,5.465,5.465,0,0,0-.6,1.8,3.792,3.792,0,0,0,1.189,3.029c.092-2.165,2.978-2.806,3.892-7.163a8.049,8.049,0,0,0,.287-2.9,5.7,5.7,0,0,0-.626-1.767,6.051,6.051,0,0,0-5.481-3.014c-.176.01-.327.022-.456.033l-.406.053a.1.1,0,0,1-.115-.077.1.1,0,0,1,.081-.1,6.437,6.437,0,0,1,3.92.192c.076.031.152.068.225.105s.246-.024.136-.188c-.8-1.4-2.037-2.373-4.687-2.363a4.7,4.7,0,0,0-1.71.4c-.14.059-.266.136-.4.2-.087.045-.292.144-.361.031-.033-.054.006-.091.059-.12l.017-.011c.126-.071.243-.146.363-.225.049-.032.1-.067.166-.1a5.17,5.17,0,0,1,4.769-.251c.117.053.2-.046.136-.117C15-1.114,10.281.2,8.273,2.1c-.614.581-1.628,1.89-1.446,2.785a4.68,4.68,0,0,1,2.949-.806,2.437,2.437,0,0,1,1.976,1.266,3.193,3.193,0,0,0-1.977-.834C8.62,4.529,5.2,6.01,4.578,7.048a1.429,1.429,0,0,0-.159,1.062c.032.138-.252.405-.445.524a15.115,15.115,0,0,0-2.743,2.092,12.656,12.656,0,0,0-1.1,1.21c-.265.355-.069.57.184,1.068.121.24.5.194.712.065a3.465,3.465,0,0,0,.419-.377A3.321,3.321,0,0,1,2.8,12c.161-.038.377-.057.413.154.026.153-.086.2-.216.212a2.007,2.007,0,0,0-.444.131,1.322,1.322,0,0,0-.167.054c-.076.035-.08.054-.109.124-.056.132-.074.266-.119.4a.733.733,0,0,1-.31.354c-.209.139-.542.163-.575.318a2.336,2.336,0,0,0,.384,1.041,4.153,4.153,0,0,0,1.471,1.287,4.638,4.638,0,0,0,2.688.741C6.428,16.7,7.361,16.535,7.657,15.913ZM5.9,9.466c-.026.056-.05.2-.131.2-.044,0-.066-.068-.075-.1a.74.74,0,0,0-.489-.58,1.34,1.34,0,0,0-.235-.055.77.77,0,0,1-.1-.012c-.015,0-.033-.011-.033-.03a.256.256,0,0,1,.077-.116c.05-.008.224.011.276.011a2.1,2.1,0,0,1,.432.079.407.407,0,0,0,.45-.244c.051-.09.059-.121.012-.187a1.022,1.022,0,0,1-.056-.772.918.918,0,0,1,.109-.267,1.413,1.413,0,0,1,.892-.635.137.137,0,0,1,.091.258,1.642,1.642,0,0,0-.567.28c-.108.1-.213.325-.093.472.09.111.2.106.327.113.239.013.48.041.718.073.082.011.185.01.229.056.068.071-.033.136-.084.158-.1.041-.2.07-.3.112a4.093,4.093,0,0,0-.823.447A1.92,1.92,0,0,0,5.9,9.466Z"/>
  <path id="Path_10" data-name="Path 10" d="M8.219,16.358l.053.01a.287.287,0,0,0,.013-.047Z"/>
  <path id="Path_11" data-name="Path 11" d="M50.989,41.536a9.577,9.577,0,0,0-1.274-4.312,20.9,20.9,0,0,0-2.562-3.47c-.908-1.043-1.844-2.006-2.651-2.965-1.614-1.92-3.976-5.836-1.015-7.715a1.724,1.724,0,0,1,.75.144c.2.091.362.22.555.316a4.708,4.708,0,0,0,.829.3,6.876,6.876,0,0,0,2.461-.262,2.545,2.545,0,0,1,1.868.527,2,2,0,0,1-.53-1.066A5.064,5.064,0,0,0,49,21.672a2.24,2.24,0,0,0-.383-.571c-1.382-1.34-3.525-.662-4.923.242a6.919,6.919,0,0,0-.893.649l-.011.055-.027.013c-2.439,1.487-2.286,4.993-1.137,7.26a15.554,15.554,0,0,0,1.62,2.483c.822,1.055,1.719,2.045,2.557,3.084a17.669,17.669,0,0,1,2.747,4.427,13.679,13.679,0,0,1,.455,2.312,3.484,3.484,0,0,1-.286,1.525,2.149,2.149,0,0,1-2.727,1c-1.182-.632-1.36-1.673-1.618-2.9-.272-1.008-.719-3.267-1.109-4.319a26.457,26.457,0,0,0-2.008-4.75,14.761,14.761,0,0,0-7.7-5.735c-.613-.215-1.234-.4-1.852-.593a8.732,8.732,0,0,1-1.655-.626,10.447,10.447,0,0,1-2.839-2.451c-1.476-1.81-2.7-3.408-5.107-3.952-1-.225-1.671-.536-1.894-1.611a5.905,5.905,0,0,1-.311-1.029c-.224.236-.41.536-.619.784a16.881,16.881,0,0,0-1.364,1.8c-.423.66-.876.816-1.448.166-.06-.067-.155-.21-.262-.183s-.151.231-.169.325a4.483,4.483,0,0,0,.523,2.8.8.8,0,0,1,.106.406,6.741,6.741,0,0,1-3.693-2.024,4.892,4.892,0,0,0,.9,3.208,13.84,13.84,0,0,1-.452,2.352,19.836,19.836,0,0,0-.091,3.108,30.1,30.1,0,0,0,1.4,7.825l.083.259a19.43,19.43,0,0,1,.613,2.4.131.131,0,0,1,.01.079,42.681,42.681,0,0,1,.31,7.385c0,.39.273,3.868-.3,3.948a4.275,4.275,0,0,0-.528.117l-.151.04a7.454,7.454,0,0,0-1.914.734c-.527.311-1.383.967-1.213,1.867a1.192,1.192,0,0,0,.051.171h7.336a2.626,2.626,0,0,0,.292-.325c.633-.8.427-2.24.426-3.187-.006-3.643.995-7.22.927-10.862-.02-1.088-.063-2.028-.1-2.626a2.325,2.325,0,0,1-.039-.682.1.1,0,0,1,.021-.043,6.369,6.369,0,0,0,1.607-1.984,9.287,9.287,0,0,0,1.083-2.617,9.38,9.38,0,0,0,.354-1.869c0-.137.01-.289.02-.447a2.853,2.853,0,0,0-.082-1.2.126.126,0,0,1,.232-.1,5.21,5.21,0,0,1,.566,2.635,8.021,8.021,0,0,1-1.328,3.921,9.039,9.039,0,0,0-1.834,3.465c.019.456.035.975.045,1.534.011.624-.036,1.53-.106,2.47a4.391,4.391,0,0,0,1.82,1.507,15.468,15.468,0,0,0,1.486.53,9.751,9.751,0,0,1,4.38,1.513c.186.136.276-.025.167-.25a6.106,6.106,0,0,1-.436-4.15,4.935,4.935,0,0,1,4.986-3.518.127.127,0,0,1,.119.132c0,.068-.1.242-.163.235A4.389,4.389,0,0,0,29.348,41.3a6.194,6.194,0,0,0,.033,2.317,8.6,8.6,0,0,0,.934,2.653,10.886,10.886,0,0,0,2.22,2.687l.048.044a7.468,7.468,0,0,0,1.536,1.146c.087.042.172.052.239.13a.166.166,0,0,1,.017.231.337.337,0,0,1-.271.042c-.114-.013-1.2,0-1.317,0a2.658,2.658,0,0,0-2.7,3.254s7.2-.016,8.109-.016a6.1,6.1,0,0,0,2.557-.646,4.407,4.407,0,0,0,1.9-2.268A5.1,5.1,0,0,1,45.159,48.6,12.211,12.211,0,0,0,49.183,46.4,5.908,5.908,0,0,0,51,42.18C51,41.962,51,41.748,50.989,41.536Z"/>
</svg>
