<svg xmlns="http://www.w3.org/2000/svg" width="57.43" height="33.795" viewBox="0 0 57.43 33.795">
  <g id="Group_1" data-name="Group 1" transform="translate(-1.785 -13.902)">
    <path id="Path_1" data-name="Path 1" d="M55.745,29.527a2,2,0,0,0-.105-.171c-.036-.052-.079-.1-.122-.158a1.3,1.3,0,0,0-.149-.161,2.211,2.211,0,0,0-.189-.139c-.065-.046-.131-.095-.194-.147-.129-.1-.245-.214-.364-.313-.06-.049-.112-.1-.165-.149s-.1-.091-.148-.135c-.179-.172-.3-.293-.295-.293l-.042.029a3.773,3.773,0,0,0,.195.377c.065.11.14.24.231.37s.19.271.3.4a3.6,3.6,0,0,0,.316.392,1.3,1.3,0,0,0,.368.241c.021.01.041.017.062.025a2.039,2.039,0,0,1-2.436-.514l-.037-.043-.014-.007a.683.683,0,0,1-.271-.476c-.029-.5.64-1.245,1.488-2.187a1.907,1.907,0,0,1,2.568-.232C57.443,28.012,57.277,28.559,55.745,29.527Z"/>
    <path id="Path_2" data-name="Path 2" d="M17.635,36.176c-.462.234-.9.454-1.27.651-2.269,1.2-2.4,2.189-1.849,3.5l.018.044a3.42,3.42,0,0,0,2.78,2.539c.785.194,1.012.413,1.071.493a.516.516,0,0,1-.291-.02,4.524,4.524,0,0,0-1.451-.211.257.257,0,0,0-.081.495,3.468,3.468,0,0,1,1.084.585,3.539,3.539,0,0,1-1.335.022c-.257-.028-.491-.039-.7-.049-1.187-.057-1.678-.081-2.987-3.8-1.164-3.306-.289-4,1.162-5.155a14.068,14.068,0,0,0,1.406-1.233,35.1,35.1,0,0,1,6.087-4.459.258.258,0,0,0,.128-.23,44.224,44.224,0,0,1,.216-5.511A10.153,10.153,0,0,0,23.4,26.38c2.034,2.094,2.477,2.733,2.348,4.786A41.77,41.77,0,0,1,17.635,36.176Z"/>
    <path id="Path_3" data-name="Path 3" d="M57.175,21.851A5.944,5.944,0,0,0,52.471,19c-1.444-.24-2.073.435-2.868,1.289l-.1.111a.573.573,0,0,1-.359.254c-.492.129-1.224-.218-2.237-1.059-.182-.15-.378-.324-.6-.526-2.134-1.894-6.574-5.833-16.9-5.07-8.707.644-10.1,1.785-12.413,3.676a29.4,29.4,0,0,1-2.724,2.036C9.7,22.686.288,32.469,1.987,42.162c.509,2.9,1.769,4.808,3.547,5.362a3.943,3.943,0,0,0,3.943-1.109,4.025,4.025,0,0,0,.936-4.127C9.79,40.4,9.019,39.879,8.481,39.773a1.672,1.672,0,0,0-1.556.7,2.692,2.692,0,0,0-.591,2.49.257.257,0,0,1-.15.33.253.253,0,0,1-.326-.152,2.871,2.871,0,0,1,.088-2c-.177-.672-.99-4.689,2.7-11.125a20.465,20.465,0,0,1,9.04-8.582,30.342,30.342,0,0,0,2.824-1.706.252.252,0,0,1,.249-.024.259.259,0,0,1,.149.2,11.94,11.94,0,0,0,2.851,6.1c2.556,2.632,2.754,3.193,2.35,6.662-.09.782-.162,1.551-.232,2.3-.239,2.553-.445,4.758-1.283,6.311a1.273,1.273,0,0,0-.228.957c.112.285.558.434,1.074.607a4.988,4.988,0,0,1,1.324.6,8.153,8.153,0,0,1,2.961,3.94,1.5,1.5,0,0,0,.142.31,4.637,4.637,0,0,0-.445-3.159.258.258,0,0,1,.09-.333.254.254,0,0,1,.337.061,7.628,7.628,0,0,0,1.917,1.959c.187-.629-.107-1.425-.969-2.66a.258.258,0,0,1,0-.293.252.252,0,0,1,.271-.1,2.829,2.829,0,0,1,1.352.851.35.35,0,0,0,.036.04,1.285,1.285,0,0,0-.525-1.037,4.012,4.012,0,0,0-1.529-.606c-1.1-.288-2.462-.647-2.294-2.041a28.053,28.053,0,0,1,1.038-3.721c.805-2.534,1.808-5.689,1.808-7.5a9.008,9.008,0,0,0-1.55-5.048c-.312-.57-.664-1.215-1.049-1.99a.257.257,0,0,1,.114-.344.253.253,0,0,1,.341.115c.206.415.4.793.589,1.142a27.7,27.7,0,0,0,4.454,2.789c.242.105.512.231.813.37.717.333,1.606.744,2.681,1.146a61.6,61.6,0,0,1,6.014-4.353.253.253,0,0,1,.35.083.258.258,0,0,1-.082.353,53.392,53.392,0,0,0-7.19,5.422c-2.085,2.028-2.071,4.1-2.042,8.217.007.986.015,2.1,0,3.358-.075,4.67.482,4.785,1.7,5.036A5.9,5.9,0,0,1,37.768,46a4.16,4.16,0,0,0,1.1.453,3.45,3.45,0,0,0-1.147-1,.257.257,0,0,1,.125-.481h0a5.808,5.808,0,0,1,1.524.222.173.173,0,0,0,.131.007c.009-.054-.167-.458-1.332-.846a.258.258,0,0,1,.045-.5,6.127,6.127,0,0,1,1.746.028c.282.056.456-.03.474-.071,0-.028-.094-.184-.516-.351a4.783,4.783,0,0,0-1.194-.241c-.8-.09-1.628-.186-2.017-1.056-.27-.605,0-1.674.367-3.151a21.536,21.536,0,0,0,.861-5.752.256.256,0,0,1,.133-.232,35.18,35.18,0,0,0,7.368-5.555.252.252,0,0,1,.359-.009.258.258,0,0,1,.009.363c-.342.363-.7.716-1.078,1.059.282.017.567.032.852.041a34.585,34.585,0,0,0,5.183-.131,3.408,3.408,0,0,1,1.426.034,1.075,1.075,0,0,1-.019-.141c-.042-.718.619-1.451,1.619-2.562a2.3,2.3,0,0,1,2.759-.571,2.272,2.272,0,0,1,.515-1.546A1.686,1.686,0,0,0,57.175,21.851Zm-5.047.157a2.455,2.455,0,0,0-.269-.408,1.429,1.429,0,0,0-.22-.214.842.842,0,0,0-.283-.138l-.038-.009-.02,0-.01,0h0l-.091,0a.188.188,0,0,0-.079.01.4.4,0,0,0-.071.014,1.043,1.043,0,0,0-.318.151c-.053.033-.1.073-.15.11s-.094.083-.137.129a2.46,2.46,0,0,0-.236.286,2.983,2.983,0,0,0-.181.3l-.068.149c-.018.051-.037.1-.054.145-.033.094-.054.185-.075.265s-.031.153-.036.213c-.01.12-.018.193-.018.193s-.02-.067-.049-.19a2.167,2.167,0,0,1-.026-.226,1.769,1.769,0,0,1,.015-.3q.013-.082.028-.17l.051-.177a2.057,2.057,0,0,1,.412-.716c.049-.056.1-.105.159-.159s.116-.1.181-.14a1.365,1.365,0,0,1,.429-.187.822.822,0,0,1,.25-.018l.1.012.017,0h.006l.007,0,.013,0,.029.009.055.017a.955.955,0,0,1,.359.233,1.237,1.237,0,0,1,.216.3,1.674,1.674,0,0,1,.171.5,1.322,1.322,0,0,1,.024.194S52.187,22.115,52.128,22.008Zm.777.1a1.949,1.949,0,0,1-.076.306,1.053,1.053,0,0,1-.037.1s.006-.039.011-.11a3.024,3.024,0,0,0,0-.307,2.544,2.544,0,0,0-.064-.461,1.553,1.553,0,0,0-.232-.524,1.318,1.318,0,0,0-.484-.421,1.364,1.364,0,0,0-.162-.07l-.077-.031-.006,0-.013,0-.024-.007-.049-.013c-.063-.014-.138-.041-.194-.048l-.173-.025a1.492,1.492,0,0,0-.729.131,1.922,1.922,0,0,0-.631.479,3.535,3.535,0,0,0-.49.684c-.036.061-.068.123-.1.187s-.066.124-.1.188-.064.134-.084.183l-.078.2a2.4,2.4,0,0,0-.131.725,1.573,1.573,0,0,0,.13.641,1.274,1.274,0,0,0,.339.449,2,2,0,0,0,.2.143c.068.035.129.073.189.1l.162.064c.048.015.09.026.124.036l.105.03-.109,0c-.036,0-.081,0-.133,0s-.112-.015-.179-.027-.14-.038-.22-.06a1.715,1.715,0,0,1-.246-.116,1.372,1.372,0,0,1-.481-.466,1.7,1.7,0,0,1-.254-.765,2.4,2.4,0,0,1,.088-.9l.066-.206c.029-.087.056-.145.084-.219a3.735,3.735,0,0,1,.2-.421,3.957,3.957,0,0,1,.548-.793,2.42,2.42,0,0,1,.809-.585,1.834,1.834,0,0,1,.975-.124l.24.051a1.472,1.472,0,0,1,.2.068l.107.04.1.051a1.88,1.88,0,0,1,.191.107,1.51,1.51,0,0,1,.543.6,1.579,1.579,0,0,1,.173.644A2.125,2.125,0,0,1,52.905,22.1ZM54.915,24a.932.932,0,1,1,.923-.932A.927.927,0,0,1,54.915,24Z"/>
    <path id="Path_4" data-name="Path 4" d="M58.964,43.35a6.288,6.288,0,0,0-2.151.315.257.257,0,0,0,.075.5c.936.033,1.265.246,1.319.319-.056.086-.445.355-1.614.42-.325.017-.622.041-.9.062-1.74.137-2.533.2-4.555-1.552-.477-.412-.945-.782-1.4-1.138-1.82-1.433-3.257-2.565-3.219-5.016.043-2.759.5-6.794.615-7.787,1.442.009,2.389-.047,3.06-.1-.86,7.208-.795,7.632,1.091,10.288,1.728,2.434,3.616,3.44,6.119,3.258,1.177-.084,1.712.264,1.806.411A.608.608,0,0,1,58.964,43.35Z"/>
  </g>
</svg>
