<svg xmlns="http://www.w3.org/2000/svg" width="40.883" height="48.837" viewBox="0 0 40.883 48.837">
  <g id="Group_1" data-name="Group 1" transform="translate(-4.203 -3.281)">
    <path id="Path_1" data-name="Path 1" d="M32.559,5.624c.33,0,1.317-.248,1.429-.771.2-.4-.1-.864-.9-1.372l-.317-.2v.376a4.224,4.224,0,0,1-.417,1.653l-.166.276.319.036A.457.457,0,0,0,32.559,5.624Zm.6-1.593c.411.31.513.535.444.683-.043.19-.426.36-.725.443A5.35,5.35,0,0,0,33.159,4.031Z"/>
    <path id="Path_2" data-name="Path 2" d="M27.25,25.749c7.7,3.4,13.131-2.806,13.131-2.806a1.506,1.506,0,0,0-.436-.207,9.4,9.4,0,0,1-10.473,1.38S27.112,25.473,27.25,25.749Z"/>
    <path id="Path_3" data-name="Path 3" d="M35.013,23.483a3.152,3.152,0,0,1-3.414-.6,8.216,8.216,0,0,0-1.387.782c1.873,1.484,5.07.656,4.962.368C35.248,23.908,35.1,23.483,35.013,23.483Z"/>
    <path id="Path_4" data-name="Path 4" d="M39.51,19.492a.769.769,0,0,0,.55-1.069,2.755,2.755,0,0,1-1.787.621C38.444,19.216,39.063,19.7,39.51,19.492Z"/>
    <path id="Path_5" data-name="Path 5" d="M41.412,20.182c.458-.253.527-.575.183-1.012a1.991,1.991,0,0,1-1.421.8A.975.975,0,0,0,41.412,20.182Z"/>
    <path id="Path_6" data-name="Path 6" d="M36.652,20.055c.594.771,2.069.47,2.24-.218a4.819,4.819,0,0,1-1.547-.276A1.24,1.24,0,0,1,36.652,20.055Z"/>
    <path id="Path_7" data-name="Path 7" d="M44.69,12.569C43.91,9.763,42.054,8.8,39.132,7.176A4.271,4.271,0,0,0,37.5,6.693a14.91,14.91,0,0,0-2-1.6,1.188,1.188,0,0,0-.666-1.381l-.392-.238.081.452c.05.272,0,1.214-.516,1.513l-.825.552.779-.046s.069.018.134.031a4.233,4.233,0,0,1-.414,1.583l-.166.277.319.036.036,0c.366,0,1.442-.492,1.547-.978a.526.526,0,0,0,.028-.092,3.818,3.818,0,0,1,1.134.181,3.03,3.03,0,0,0-1.232,1.225c-.406.724-1.085.937-1.2,2.058,1.306-1.127,1.879-.92,1.879-.92A11.428,11.428,0,0,1,38.273,9.3c.963.138,3.884,2.323,2.521,5.2a9.387,9.387,0,0,1-2.733,1.632A30.892,30.892,0,0,0,28.854,20.6c-.137.1-.3.2-.344.328-.169.5.378,1.087.378,1.087.31-.239,4.366-4.244,9.506-5.489,2.147-.618,4.556.383,4.783,1.475.114,7.7-8.179,9.137-9.442,9.43-2.853.639-6.5-.672-7.264-1.081a5.359,5.359,0,0,0-.665.8s.693.932,3.609,1.227c-1.341.952-5.59.633-5.924.4C22.8,26.6,26.035,24,26.035,24A12.627,12.627,0,0,1,28.2,22.563a3.436,3.436,0,0,1-.344-1.242,7.481,7.481,0,0,0-2.445,2.661c-1.817.548-6.7,2.238-6.819,5.313a.653.653,0,0,0,.158.418c-2.4.731-3.911,1.706-4.58,4.734a.855.855,0,0,0,.139.556c-1.543.891-4.227,2.838-4.052,5.535a2.571,2.571,0,0,0,.648.355,4.546,4.546,0,0,1-2.432.919c-.583-.735-1.927-.187-1.927-.187l.471.227a1.935,1.935,0,0,1,.678,1.6,1.529,1.529,0,0,0,.929-1.274,8.31,8.31,0,0,0,1.922-.684,5.436,5.436,0,0,0-1.972,3.94,5.673,5.673,0,0,0,1.9.389,11.243,11.243,0,0,1-3.924,1.253c-.776-.833-2.349-.039-2.349-.039l.592.229a2.344,2.344,0,0,1,.974,1.873,1.856,1.856,0,0,0,1-1.631c.619-.275,2.472-.467,3.751-1.288a11.534,11.534,0,0,1-1.752,1.352,2.389,2.389,0,0,0-1.844.335l.686.265c.587.192.8,1.112.76,1.45l0,.409.481-.506a1.4,1.4,0,0,0,.123-1.588,8.255,8.255,0,0,0,1.651-1.246C10,48.1,9.7,50.482,10.292,51.647c.33.649,3.678.69,5.913-.276,5.714-1.581,6.543-7.978,6.653-9.26a13.721,13.721,0,0,0,3.611-6.4,13.686,13.686,0,0,0,3.538-4.432,15.734,15.734,0,0,0,2.115-1.889,7.961,7.961,0,0,1,1.129,3.14.409.409,0,0,1-.291.493.455.455,0,0,0-.352.071.409.409,0,0,0-.144.3l.138-.068a5.84,5.84,0,0,1,2.75-.052l.058.023c.065.344.126.711.183,1.134.017.517-.644.676-.7.655a.764.764,0,0,0-.556.058c-.157.081-.18.179-.235.356a3.083,3.083,0,0,1,1.208-.149,6.751,6.751,0,0,1,2.314.529c.241.115.585.126.711.437l.092.011a1.262,1.262,0,0,0-.184-.563c-.082-.167-.561-.311-.8-.391a2.937,2.937,0,0,1-.54-.2,1.884,1.884,0,0,1,.723-.119.761.761,0,0,1,.5.223h.309a1.307,1.307,0,0,0-.728-.419c-.3-.034-1.032.12-1.167.088a.7.7,0,0,1-.483-.341,34.681,34.681,0,0,0-1.134-5.643c4.794-1.906,7.088-4.375,8.077-6.087A13.482,13.482,0,0,0,44.69,12.569ZM35.035,6.759c-.046.2-.48.463-.811.6a5.24,5.24,0,0,0,.268-1.117C34.725,6.364,35.12,6.575,35.035,6.759Zm.354-.364a1.805,1.805,0,0,0-.662-.5,1.217,1.217,0,0,0,.63-.423,8.016,8.016,0,0,1,1.805,1.256A6.823,6.823,0,0,0,35.389,6.395ZM6,48.644c-.086-.454-.45-1.424-1.014-1.614.428-.207,1.283-.068,1.423.47C6.538,47.87,6.255,48.262,6,48.644ZM24.867,30.928a1.08,1.08,0,0,0,1.328-.14,1.169,1.169,0,0,0,.168-.489c.069.008.117.2.129.224a.777.777,0,0,1-.052.854,1.4,1.4,0,0,1-.917.484,1.694,1.694,0,0,1-1.092-.295c-.719-.467-.85-.919-.4-1.38a2.842,2.842,0,0,1,1.235-.409,1.028,1.028,0,0,0-.38.2C24.566,30.308,24.433,30.644,24.867,30.928Zm-5.454-2.719a8.057,8.057,0,0,1,5.111-3.576,5.868,5.868,0,0,0-1.02,1.106.224.224,0,0,0-.057.032,1.951,1.951,0,0,1-.61.223c-.114.022-.235.04-.359.059a2.029,2.029,0,0,0-1.158.391c-.322.36-.541.946.252,1.7a1.426,1.426,0,0,0,.961.43h.043a.213.213,0,0,0,.117-.045,2.587,2.587,0,0,0,.032.523l-.013-.011c-.8.713-3.3.606-3.506.253A2.024,2.024,0,0,1,19.412,28.209Zm3.423,1.127h0Zm-.63-1.908a.588.588,0,0,0,.571.14c-.037.271-.068.535-.081.775a.759.759,0,0,1-.129.018,1.193,1.193,0,0,1-.853-.373c-.546-.517-.624-.976-.24-1.4a1.922,1.922,0,0,1,1.006-.32.752.752,0,0,0-.314.174A.656.656,0,0,0,22.206,27.428Zm-.218,9.085a1.342,1.342,0,0,1-.807.428,2.057,2.057,0,0,1-1.325-.276c-.889-.5-1.072-1.025-.562-1.6a2.609,2.609,0,0,1,1.137-.481c.041,0,.082.008.124.011a.858.858,0,0,0-.25.172.671.671,0,0,0,.2,1.149,1.162,1.162,0,0,0,1.414-.283.9.9,0,0,0,.13-.477c0,.028.019.113.022.141C22.132,35.76,22.2,36.28,21.988,36.513ZM19.344,33.66c-.3-1.01-.708-2.679-.005-3.655a3.746,3.746,0,0,0,1.067.025.8.8,0,0,0-.17.127c-.365.407-.613,1.072.286,1.923a1.616,1.616,0,0,0,1.09.488l.049,0a1.114,1.114,0,0,0,.716-.305,1.434,1.434,0,0,0,.566.653,7.463,7.463,0,0,0,2.2.225A10.026,10.026,0,0,1,19.344,33.66Zm1.9-2.389a.713.713,0,0,0,.978,0,2.2,2.2,0,0,0,.072.749.9.9,0,0,1-.64.31,1.351,1.351,0,0,1-.966-.421c-.619-.586-.708-1.107-.273-1.593a2.176,2.176,0,0,1,1.141-.362.848.848,0,0,0-.356.2A.744.744,0,0,0,21.24,31.271Zm-2.209-1.356.045.016a3.42,3.42,0,0,0-.562,1.131.637.637,0,0,1-.124.038c-.114.021-.235.04-.36.058a2.032,2.032,0,0,0-1.158.391c-.322.36-.54.946.252,1.7a1.427,1.427,0,0,0,.961.43h.043a2.012,2.012,0,0,0,.425-.057,3.342,3.342,0,0,0,.123.35c-1.057.561-3.741.593-3.71.22C15.181,31.58,17.694,30.38,19.031,29.915ZM17.76,32.534a.594.594,0,0,0,.618.126,5.193,5.193,0,0,0,.108.7.777.777,0,0,1-.364.112,1.194,1.194,0,0,1-.853-.373c-.546-.517-.624-.976-.24-1.4a1.92,1.92,0,0,1,1.007-.32.748.748,0,0,0-.314.173A.656.656,0,0,0,17.76,32.534Zm-2.192,4.2a.982.982,0,0,0,1.182-.1,2.449,2.449,0,0,0-.156.493c-.034.177-.06.357-.079.535a1,1,0,0,1-.514.157,1.526,1.526,0,0,1-1.052-.447c-.668-.609-.758-1.143-.274-1.633a2.509,2.509,0,0,1,1.253-.353.948.948,0,0,0-.392.2A.729.729,0,0,0,15.567,36.738Zm-.916-1.5a2.17,2.17,0,0,0,.406.056,1.263,1.263,0,0,0-.574.284c-.406.411-.686,1.088.285,1.972a1.823,1.823,0,0,0,1.185.517h.053a1.282,1.282,0,0,0,.486-.106,3.171,3.171,0,0,0,.069,1.026,9.119,9.119,0,0,1-5.09.927C12.119,37.254,13.4,35.9,14.651,35.241Zm2.234,13.383a1.4,1.4,0,0,1-.871.615,2.108,2.108,0,0,1-1.543-.311c-1.07-.637-1.338-1.333-.821-2.128a3.447,3.447,0,0,1,1.6-.824,1.3,1.3,0,0,0-.476.374,1,1,0,0,0,.36,1.541,1.164,1.164,0,0,0,1.581-.448,1.371,1.371,0,0,0,.095-.65c.007.037.033.152.041.189A2.794,2.794,0,0,1,16.886,48.624Zm-1.533-7.018c-.009.018-.02.037-.029.057.01-.044.019-.088.028-.129C15.351,41.548,15.352,41.577,15.353,41.606Zm-1.245.425a.776.776,0,0,0,1.087-.078,7.033,7.033,0,0,0-.339,1,.944.944,0,0,1-.345.077,1.412,1.412,0,0,1-.971-.408c-.618-.559-.7-1.052-.259-1.505a.987.987,0,0,1,.45-.209l.079-.019c.2-.044.415-.075.626-.1a.878.878,0,0,0-.361.182A.673.673,0,0,0,14.108,42.031Zm-2.944-1.039.005,0-.028.022Zm-.94,3.34a4.03,4.03,0,0,1,1.725-3.2,5.024,5.024,0,0,0,1.077-.07c-.323.386-.481.973.349,1.724a1.682,1.682,0,0,0,1.094.471h.05a1.193,1.193,0,0,0,.286-.046,5.206,5.206,0,0,0-.109.824A6.2,6.2,0,0,1,10.223,44.332Zm1.65,5.934a3.817,3.817,0,0,1,.156-4.576,8.872,8.872,0,0,0,2.691-1.079,1.411,1.411,0,0,0,.3.779.669.669,0,0,0,.414.165c-.087.031-.17.061-.26.092a3.645,3.645,0,0,0-1.828.984c-.434.667-.627,1.658.928,2.583a2.516,2.516,0,0,0,1.742.367l.072-.015a1.761,1.761,0,0,0,1.1-.771,2.845,2.845,0,0,0,.009-1.877c-.05-.264-.1-.513-.122-.74a2.439,2.439,0,0,1,.146-.868c.611-.157,1.258-.362,1.826-.551a13.225,13.225,0,0,0,3.15-2.036C20.7,47.438,18.746,51.652,11.873,50.266Zm4.572-6.244c-.485-.126-.545-2.494,1.044-4.447a6.67,6.67,0,0,0,1.4-.093,1.37,1.37,0,0,0-.564.391c-.381.511-.585,1.293.61,2.112a2.02,2.02,0,0,0,1.374.383l.058-.009a1.405,1.405,0,0,0,.916-.56,2.279,2.279,0,0,0,.1-1.5c-.027-.214-.052-.415-.06-.6a1.933,1.933,0,0,1,.169-.7c.04-.065.151-.2.236-.334a20.038,20.038,0,0,0,4.285-2.581C24.786,40.031,20.453,43.668,16.444,44.022Zm3.237-3.05a.931.931,0,0,0,1.286-.276,1.1,1.1,0,0,0,.109-.514c0,.03.019.123.023.153a2.245,2.245,0,0,1-.052,1.313,1.121,1.121,0,0,1-.728.448,1.689,1.689,0,0,1-1.217-.328c-.823-.564-1-1.134-.547-1.743a2.767,2.767,0,0,1,1.317-.577,1.044,1.044,0,0,0-.4.274A.8.8,0,0,0,19.682,40.972Zm-2.011-2.781c-.474-.158-.632-2.167,1.267-3.9a3.429,3.429,0,0,0,.861.22,1.805,1.805,0,0,0-.756.421c-.428.479-.669,1.206.622,1.935a2.457,2.457,0,0,0,1.5.323l.064-.009a1.689,1.689,0,0,0,1.015-.536c.28-.313.212-.859.146-1.387-.019-.154-.085-.507-.115-.734a13.3,13.3,0,0,0,4.192-1.569,9.312,9.312,0,0,0,3.032-1.328C27.572,35.209,21.48,38.125,17.671,38.191Zm5.546-5.9a2.446,2.446,0,0,1-.1-2.791,7.22,7.22,0,0,0,1.582.182,1.864,1.864,0,0,0-.874.378c-.377.387-.608.992.436,1.67a2.023,2.023,0,0,0,1.232.343l.054,0a1.81,1.81,0,0,0,.969-.52c.246-.253.266-.526.172-.983-.017-.207-.233-.66-.069-.777.222-.158.529-.238.624-.309a7.062,7.062,0,0,0,2.63-1.062c.766.059,1.57.071,2.418.069C30.861,29.884,27.158,33.313,23.217,32.292Zm12.134.7a6.377,6.377,0,0,1-.664-.042,4.215,4.215,0,0,1-.436-.1,2.239,2.239,0,0,1,.6-.161,2.312,2.312,0,0,1,.442.037C35.31,32.81,35.331,32.894,35.35,32.989Zm-.083-.358c-.345-.17-1.355.115-1.412.04-.529-.687-.708-3.282-.868-4.026a4.047,4.047,0,0,0,.357.58C33.733,30,34.639,30,35.268,32.631Z"/>
  </g>
</svg>
