<svg xmlns="http://www.w3.org/2000/svg" xmlns:xlink="http://www.w3.org/1999/xlink" width="44" height="55" viewBox="0 0 44 55">
  <defs>
    <clipPath id="clip-path">
      <rect id="Rectangle_1" data-name="Rectangle 1" width="44" height="55" fill="#fff"/>
    </clipPath>
  </defs>
  <g id="Group_1" data-name="Group 1" clip-path="url(#clip-path)">
    <path id="Path_1" data-name="Path 1" d="M31.642,33.344a1.735,1.735,0,0,0,.042-.381,1.672,1.672,0,0,0-.232-.859,1.025,1.025,0,0,0,.568-.526,1.579,1.579,0,0,0,1.081.007,1.842,1.842,0,0,0,1.246-1.508,1.871,1.871,0,0,0,1.732-1.292,3.032,3.032,0,0,0,.209-1.827,1.312,1.312,0,0,0,.9-.328,2.214,2.214,0,0,0,.712-1.28,2.469,2.469,0,0,0-.349-1.89,2.734,2.734,0,0,0,1-2.291,3.047,3.047,0,0,0-.671-2.01,3.762,3.762,0,0,0,.4-1.751c0-1.466-.736-2.667-1.658-2.739a3.394,3.394,0,0,0,.1-.811c0-1.465-.919-2.657-2.048-2.657a1.6,1.6,0,0,0-.37.043,3.3,3.3,0,0,0-.955-2.67,1.873,1.873,0,0,0-2.257-.209A2.314,2.314,0,0,0,28.931,6a2.091,2.091,0,0,0-1.742,1,1.892,1.892,0,0,0-1.653-1.2,2.006,2.006,0,0,0-1.8,1.607,1.536,1.536,0,0,0-.939-.335,2.231,2.231,0,0,0-1.882,2.374,1.193,1.193,0,0,0-.51-.115,1.789,1.789,0,0,0-1.512,1.97,2.523,2.523,0,0,0,.05.5,1.191,1.191,0,0,0-.879,1.279,1.688,1.688,0,0,0,.056.433.71.71,0,0,0-.146.231l-.333-2.352s-.105-1.825.37-2.346.889.114.889.114l-.23-2.32s-.327-1.672.814-2.373a1.133,1.133,0,0,1,1.7.4s-.639-2.381.836-3.279,2.335.818,2.335.818S24.725.228,26.572.228a2.326,2.326,0,0,1,2.167,1.6S29.7-.521,31.329.1a2.576,2.576,0,0,1,1.607,2.355s1.41-2.571,3.229-1.083a2.807,2.807,0,0,1,.969,3.315s2.02-1.84,3.469.15.588,3.741.122,4.142a2.119,2.119,0,0,1,2.016,1.672,3.078,3.078,0,0,1-1.13,3.591,2.511,2.511,0,0,1,2.353,2.465,2.592,2.592,0,0,1-1.374,2.857,3.036,3.036,0,0,1,.875,2.857,1.835,1.835,0,0,1-2.181,1.549,2.641,2.641,0,0,1,1.209,3.059c-.463,2.263-1.909,1.576-1.909,1.576a2.293,2.293,0,0,1-.093,2.4c-.839,1.144-2.285.172-2.285.172a1.627,1.627,0,0,1-1.026,1.945,1.792,1.792,0,0,1-2.1-.4,1.862,1.862,0,0,1-1.912,1.316A2.036,2.036,0,0,1,31.642,33.344Zm-.372-1.766c.135-.186.361-.212.4-.43l.066-.356L32,30.96a1.136,1.136,0,0,0,.977.081,1.238,1.238,0,0,0,.9-1.253L33.8,29.3l.386.165c.514.219,1.155-.188,1.492-.948a2.146,2.146,0,0,0,.035-1.789l-.39-.739.667.323a.827.827,0,0,0,.127.051.87.87,0,0,0,.82-.2,1.637,1.637,0,0,0,.523-.947,1.684,1.684,0,0,0-.478-1.626l-.515-.4.6-.119c.587-.116,1.03-.936,1.03-1.905a2.25,2.25,0,0,0-.655-1.721l-.211-.173.161-.241a3.005,3.005,0,0,0,.436-1.627c0-1.2-.577-2.179-1.286-2.179a.759.759,0,0,0-.212.032l-.48.137.224-.539a2.638,2.638,0,0,0,.194-1,1.9,1.9,0,0,0-1.589-2.093,1.254,1.254,0,0,0-.591.151l-.5.262.189-.619a2.678,2.678,0,0,0-.7-2.526,1.516,1.516,0,0,0-2.111.1l-.534.565.161-.843a2.1,2.1,0,0,0,.038-.393,1.808,1.808,0,0,0-1.706-1.892A1.711,1.711,0,0,0,27.357,7.73l-.262.695-.167-.737A1.551,1.551,0,0,0,25.536,6.36,1.616,1.616,0,0,0,24.1,7.931l-.062.541L23.719,8.1a1.227,1.227,0,0,0-.922-.464c-.786,0-1.426.875-1.426,1.95a2.7,2.7,0,0,0,.021.316l.084.7-.454-.441a.884.884,0,0,0-.618-.27c-.581,0-1.053.631-1.053,1.406a1.77,1.77,0,0,0,.151.722l.35.778-.651-.388a.358.358,0,0,0-.185-.053c-.272,0-.493.323-.493.72a.945.945,0,0,0,.09.413l.1.2q.355-.021.715-.021a12.037,12.037,0,0,1,1.456.088A1.661,1.661,0,0,1,22.489,12.1a1.511,1.511,0,0,1,.579.117A1.652,1.652,0,0,1,24.537,11.2a1.579,1.579,0,0,1,1.278.683,1.515,1.515,0,0,1,.84-.652,1.394,1.394,0,0,1,1.217.221,2.023,2.023,0,0,1,.758,1.136,1.533,1.533,0,0,1,1.477.417,2.336,2.336,0,0,1,.7,1.321,1.649,1.649,0,0,1,1.454.625,2.541,2.541,0,0,1,.612,1.838,2.032,2.032,0,0,1,1.1,1.145,2.547,2.547,0,0,1-.082,2.307A2.488,2.488,0,0,1,34,23.21a2.4,2.4,0,0,1,.275,1.144,1.97,1.97,0,0,1-.929,1.8,2.3,2.3,0,0,1-.306,1.358,1.57,1.57,0,0,1-1.035.81,1.414,1.414,0,0,1-.845,1.322,1.481,1.481,0,0,1,.393,1.035A1.534,1.534,0,0,1,31.27,31.578Zm-.446-2.432h.011a.817.817,0,0,0,.706-.868,1.059,1.059,0,0,0-.014-.172l-.066-.383.317.045a.991.991,0,0,0,.883-.582,1.532,1.532,0,0,0,.19-1.137l-.089-.315.268-.055a1.28,1.28,0,0,0,.78-1.324,1.678,1.678,0,0,0-.3-1l-.184-.243.225-.183a1.747,1.747,0,0,0-.123-2.417l-.288-.214.267-.251A1.725,1.725,0,0,0,33.57,18.2a1.412,1.412,0,0,0-.985-.909l-.266-.037.071-.317a1.855,1.855,0,0,0-.437-1.57,1.179,1.179,0,0,0-1.273-.429l-.293.113-.005-.377a1.722,1.722,0,0,0-.551-1.216,1.066,1.066,0,0,0-1.264-.243l-.284.17L28.237,13a1.505,1.505,0,0,0-.594-1.058,1.011,1.011,0,0,0-.881-.162,1.1,1.1,0,0,0-.674.611c-.019.04-.035.081-.05.122l-.192.536-.222-.518a1.209,1.209,0,0,0-1.088-.766,1.223,1.223,0,0,0-1.141.908l-.09.293-.228-.14a1.123,1.123,0,0,0-.59-.169A1.169,1.169,0,0,0,21.339,13.8c0,.008,0,.017,0,.024a11.936,11.936,0,0,1,10.03,11.754A11.809,11.809,0,0,1,30.823,29.146Zm-11.4-14.912A11.427,11.427,0,0,0,7.943,25.576a11.225,11.225,0,0,0,4.484,8.991.164.164,0,0,1,.022.02c4.239,4.176,14.381,2.911,14.483,2.9h.024c.393,0,.737-.255.737-.546a.337.337,0,0,0,0-.05.321.321,0,0,1,.078-.262.2.2,0,0,1,.223-.052.834.834,0,0,0,.319.064.748.748,0,0,0,.776-.712.647.647,0,0,0-.028-.188.329.329,0,0,1,.052-.3.2.2,0,0,1,.241-.067.728.728,0,0,0,.3.062.691.691,0,0,0,.707-.672.643.643,0,0,0-.125-.379.334.334,0,0,1-.04-.3.236.236,0,0,1,.2-.171.961.961,0,0,0,.026-1.9.266.266,0,0,1-.217-.3.253.253,0,0,1,.241-.266h.04a.7.7,0,0,0,.6-.771.714.714,0,0,0-.572-.769.226.226,0,0,1-.179-.126.339.339,0,0,1-.024-.252,1.062,1.062,0,0,0,.043-.3c0-.024,0-.048,0-.071,0,0,0-.009,0-.014a.867.867,0,0,0-.808-.85h-.777a.229.229,0,0,1-.2-.154.336.336,0,0,1,.019-.294.581.581,0,0,0,.082-.3.591.591,0,0,0-.594-.588H26.9a.242.242,0,0,1-.221-.206.314.314,0,0,1,.1-.317.606.606,0,0,0,.238-.489.565.565,0,0,0-.536-.589.288.288,0,0,1,0-.564,1.084,1.084,0,0,1,1,1.152,1.306,1.306,0,0,1-.078.448h.671a1.106,1.106,0,0,1,1.053,1.151,1.31,1.31,0,0,1-.013.181h.434a1.219,1.219,0,0,1,1.021.608,11.239,11.239,0,0,0,.344-2.766A11.427,11.427,0,0,0,19.426,14.234Zm0,0A11.427,11.427,0,0,0,7.943,25.576a11.225,11.225,0,0,0,4.484,8.991.164.164,0,0,1,.022.02c2.631,2.592,7.537,3.087,10.9,3.087a31.386,31.386,0,0,0,3.579-.19h.024c.393,0,.737-.255.737-.546a.337.337,0,0,0,0-.05.321.321,0,0,1,.078-.262.207.207,0,0,1,.149-.068.188.188,0,0,1,.074.016.834.834,0,0,0,.319.064.748.748,0,0,0,.776-.712.647.647,0,0,0-.028-.188.329.329,0,0,1,.052-.3.21.21,0,0,1,.163-.084.2.2,0,0,1,.078.017.728.728,0,0,0,.3.062.691.691,0,0,0,.707-.672.643.643,0,0,0-.125-.379.334.334,0,0,1-.04-.3.236.236,0,0,1,.2-.171.961.961,0,0,0,.026-1.9.266.266,0,0,1-.217-.3.257.257,0,0,1,.228-.267h.053a.7.7,0,0,0,.6-.771.714.714,0,0,0-.572-.769.226.226,0,0,1-.179-.126.339.339,0,0,1-.024-.252,1.062,1.062,0,0,0,.043-.3c0-.024,0-.048,0-.071,0,0,0-.009,0-.014a.867.867,0,0,0-.808-.85h-.777a.229.229,0,0,1-.2-.154.336.336,0,0,1,.019-.294.581.581,0,0,0,.082-.3.591.591,0,0,0-.594-.588H26.9a.242.242,0,0,1-.221-.206.314.314,0,0,1,.1-.317.606.606,0,0,0,.238-.489.565.565,0,0,0-.536-.589.288.288,0,0,1,0-.564,1.084,1.084,0,0,1,1,1.152,1.306,1.306,0,0,1-.078.448h.671a1.106,1.106,0,0,1,1.053,1.151,1.31,1.31,0,0,1-.013.181h.434a1.219,1.219,0,0,1,1.021.608,11.239,11.239,0,0,0,.344-2.766A11.427,11.427,0,0,0,19.426,14.234ZM4.4,10.891a12.993,12.993,0,0,1,.073-1.3,3.45,3.45,0,0,0-.982,1.651C3.765,11.121,4.076,11,4.4,10.891Zm5.88,7.035v-.9s3.058-5.121,3.116-6.67-.919-5.5-3.675-5.072S5.7,6.273,5.187,8.246a14.034,14.034,0,0,0,0,5.988c.919-1.62-.015-4.113,1.608-5.848A2.3,2.3,0,0,1,8.632,7.9a.51.51,0,0,1,.462-.375.568.568,0,0,1,.5.616.568.568,0,0,1-.5.616.491.491,0,0,1-.429-.3.388.388,0,0,1-.092,0A1.876,1.876,0,0,0,7.1,8.812a3.23,3.23,0,0,0-.8,1.67c.863-.042,1.429.244,1.039,1.2a31.512,31.512,0,0,1-3.187,5.789c-1.005,1.374-9.375,11.6.947,17.19,4.457,2.414,7.883,2.242,9.413,1.971a8.665,8.665,0,0,1-2.341-1.6,11.875,11.875,0,0,1-1.892-17.111Zm9.819,24.7c-.7.035-.215-2.783.617-1.656.173-1.339-.89-.986-.89-.986a7.165,7.165,0,0,1,.109-1.928c-.474-.058-.9-.118-.9-.118a15.237,15.237,0,0,1-.188,4.171.477.477,0,0,1-.117.169,3.479,3.479,0,0,0-.9-.075c-.7.035-.215-2.712.618-1.585.172-1.339-.89-.986-.89-.986a7.235,7.235,0,0,1,.1-1.946c-.393-.091-.889-.219-.889-.219a15.6,15.6,0,0,1-.19,4.221c-.417,1.056-4.679-.047-4.88,1.89,1.072-.505,1,0,1.894,0h.506a1.07,1.07,0,0,0-.132.423c1.072-.5,1,0,1.894,0H19.83c1.127,0,1.454-.763,2.526,0C22.211,42.766,20.8,42.59,20.1,42.625Z"/>
  </g>
</svg>
