<svg xmlns="http://www.w3.org/2000/svg" width="49.991" height="32.291" viewBox="0 0 49.991 32.291">
  <g id="Group_1" data-name="Group 1" transform="translate(0 -9.053)">
    <path id="Path_1" data-name="Path 1" d="M14.221,39.384a.4.4,0,0,0,.118.272.389.389,0,0,0,.273.112H16.9a4.841,4.841,0,0,1,.756-1.012c.768-1.655-.19-4.624-1.264-6.695a.747.747,0,0,1-.039-.088c-.113-.144-.209-.288-.283-.4a1.193,1.193,0,0,1-.068-.1l-.029-.047a.771.771,0,0,1-.293.082q-.19.014-.379.014a5.609,5.609,0,0,1-.683-.044h-.027c.7,1.692,1.518,4.38.584,6.166A2.926,2.926,0,0,0,14.221,39.384Z"/>
    <path id="Path_2" data-name="Path 2" d="M39.234,39.738c.7-.3.874-.708.9-1.026v-.869h.5a.39.39,0,0,0,.309-.153.4.4,0,0,0,.069-.34l-.521-1.991.493-2c-.051-.089-.105-.173-.162-.256-.016-.023-.031-.046-.047-.069-.048-.067-.1-.129-.152-.189-.014-.016-.028-.035-.043-.051a14.6,14.6,0,0,1-1.629-2.408.776.776,0,0,1-.253.093c-.911.164-1.954.428-2.87.686.735,1.653,1.745,4.58.734,6.482a2.913,2.913,0,0,0-.969,1.741.4.4,0,0,0,.117.273.388.388,0,0,0,.273.112h3.1A.379.379,0,0,0,39.234,39.738Z"/>
    <path id="Path_3" data-name="Path 3" d="M.6,26.8a2.146,2.146,0,0,1,.465,1.024,1.19,1.19,0,0,0,.405.787,1.172,1.172,0,0,0,.833.284A1.65,1.65,0,0,0,3,28.673a7.917,7.917,0,0,0,3.25.658c.34.02,4.09.26,4.953.26a1.542,1.542,0,0,1,.992.244.341.341,0,0,0,.082.067,6.672,6.672,0,0,0,3.348.823,5.927,5.927,0,0,1-.367-1.181.4.4,0,0,1,.062-.294.391.391,0,0,1,.708.145,4.825,4.825,0,0,0,.641,1.666c.016.028.039.055.059.083a4.089,4.089,0,0,0,.285.4.365.365,0,0,1,.074.157c.5.972,2.488,5.1,1.215,7.525a2.953,2.953,0,0,0-.953,1.736.4.4,0,0,0,.117.273.389.389,0,0,0,.274.112h3.051a.4.4,0,0,0,.152-.032c.691-.3.859-.709.883-1.024v-.87h.488a.385.385,0,0,0,.172-.04.392.392,0,0,0,.2-.452l-.512-1.992.891-3.693a.391.391,0,0,1,.055-.319c0-.008.02-.031.039-.063a8.1,8.1,0,0,1,.605-1.15,10.267,10.267,0,0,0,.6-1.823,9.24,9.24,0,0,0,.188-3.158.4.4,0,0,1,.08-.291.388.388,0,0,1,.647.054.4.4,0,0,1,.046.147,9.965,9.965,0,0,1-.176,3.308L25.137,30a34.213,34.213,0,0,0,7.172,1.1,8.4,8.4,0,0,0,1.262-.083.367.367,0,0,0,.063-.016A40.582,40.582,0,0,1,38.558,29.7a.111.111,0,0,1,0-.063c-1.156-2.418-2-5.906.137-9.281a.39.39,0,0,1,.711.124.4.4,0,0,1-.051.3c-3.457,5.461,1.734,11.4,1.793,11.47a6.229,6.229,0,0,1,1.2,2.414l-.219,3.367a2.655,2.655,0,0,1-.391,1.106,3.4,3.4,0,0,1-.289.323,1.148,1.148,0,0,0-.356.338,1.16,1.16,0,0,0,.063,1.387.39.39,0,0,0,.316.161h3.176a1.131,1.131,0,0,0,.821-.352,1.15,1.15,0,0,0,.315-.841l-.023-.591a.364.364,0,0,0,.324.051l.453-.13a.39.39,0,0,0,.219-.161c.563-.854-.27-2.028-.453-2.264a2.946,2.946,0,0,1-.152-1.9,4.415,4.415,0,0,0,.113-3.611,7.262,7.262,0,0,1-.359-.894,1.085,1.085,0,0,1,.3-.906,14.917,14.917,0,0,0,3.668-8.009,9.457,9.457,0,0,0-2.105-7.576,2.672,2.672,0,0,0,.625-.445,3.008,3.008,0,0,0,.66-2.752,2.537,2.537,0,0,0-.833-1.331,2.5,2.5,0,0,0-1.452-.579,1.009,1.009,0,0,0-.793.3c-.312.331-.324,1.189.227,1.288a.693.693,0,0,1,.289.122A.678.678,0,0,1,46.5,11.8a.931.931,0,0,1-.824.2c-.324-.067-.547-.327-.84-.461C38.59,7.658,28.2,10.962,27.758,11.1c-.016,0-.031.012-.043.016a12.418,12.418,0,0,1-5.707,1.292,7.443,7.443,0,0,0-5.66,1.5,2.059,2.059,0,0,1-.555.268,23.865,23.865,0,0,0-4.8,1.911,4.292,4.292,0,0,1-.144,3.66.392.392,0,0,1-.224.2.388.388,0,0,1-.3-.018.4.4,0,0,1-.18-.527,3.535,3.535,0,0,0,.147-2.942,4.489,4.489,0,0,0-1.652-2.028.391.391,0,0,0-.469.035A4.64,4.64,0,0,0,6.8,16.441a3.594,3.594,0,0,0,.162,2.5,5.04,5.04,0,0,0,.726,1.191.4.4,0,0,1-.051.554.388.388,0,0,1-.55-.052,5.643,5.643,0,0,1-.613-.92,12.969,12.969,0,0,0-1.129,2.04A5.9,5.9,0,0,1,3.32,23.712a8.587,8.587,0,0,0-1.539.949,1.109,1.109,0,0,0-.684-.2,1.248,1.248,0,0,0-.836.413c-.582.512-.039,1.343.168,1.658C.43,26.535.555,26.728.6,26.8Zm6.555-4.126c.539-.437.719-.736.82-.78a.369.369,0,0,1,.465.11.48.48,0,0,1,.031.665,1.236,1.236,0,0,1-.586.319A1.2,1.2,0,0,1,7.242,23a1.309,1.309,0,0,1-.133-.039.107.107,0,0,1-.074-.134A.364.364,0,0,1,7.156,22.672Z"/>
    <path id="Path_4" data-name="Path 4" d="M5.621,16.148a.386.386,0,0,0-.245.059.391.391,0,0,0-.158.2,3.9,3.9,0,0,0,.171,3.562c.131-.22.276-.453.438-.691,0-.007.012-.012.017-.019l.027-.041.006,0A.78.78,0,0,1,6.145,19a4.354,4.354,0,0,1-.094-2.783A3.483,3.483,0,0,0,5.621,16.148Z"/>
  </g>
</svg>
