<svg id="Group_1" data-name="Group 1" xmlns="http://www.w3.org/2000/svg" width="54.291" height="25.848" viewBox="0 0 54.291 25.848">
  <path id="Path_1" data-name="Path 1" d="M49.118,0a.17.17,0,0,0-.086.019,1.859,1.859,0,0,0-.834.91.627.627,0,0,1-.576.381q-.7,0-1.4.019a4.095,4.095,0,0,0-.456,6.106.229.229,0,0,1-.331.317,4.549,4.549,0,0,1,.063-6.4q-1.118.053-2.233.163A3.709,3.709,0,0,1,42.1,3.279a.229.229,0,1,1-.3-.348,3.253,3.253,0,0,0,.955-1.357q-1.444.159-2.875.414a6.807,6.807,0,0,0,.495,5.538A4.008,4.008,0,0,1,40.872,10a.229.229,0,0,1-.451-.057,3.553,3.553,0,0,0-.432-2.194,7.262,7.262,0,0,1-.609-5.667q-.762.145-1.519.318a12.95,12.95,0,0,0-.5,11.408.23.23,0,0,1-.423.182,13.405,13.405,0,0,1,.331-11.451q-.545.132-1.087.278a13.537,13.537,0,0,1-2.986.456,10.574,10.574,0,0,0-.259,3.193.229.229,0,0,1-.456.032,11.028,11.028,0,0,1,.25-3.214,13.539,13.539,0,0,1-1.638-.091q-.636-.074-1.274-.138a28.326,28.326,0,0,1-1.053,6.594.23.23,0,1,1-.442-.125A27.874,27.874,0,0,0,29.36,3.01q-1.61-.152-3.225-.24A15.162,15.162,0,0,0,23.9,6.4a3.89,3.89,0,0,0,.087,3.461.23.23,0,0,1-.408.212,4.346,4.346,0,0,1-.1-3.86,15.618,15.618,0,0,1,2.084-3.471q-2.318-.109-4.64-.083H20.88a7.885,7.885,0,0,0,.1,7.1.229.229,0,0,1-.1.306.23.23,0,0,1-.308-.1h0a8.34,8.34,0,0,1-.2-7.318,18.482,18.482,0,0,0-2.5.175,8.854,8.854,0,0,0-.642,6.662,1.09,1.09,0,0,0,.13.282,5.6,5.6,0,0,1,.854,3.839.23.23,0,0,1-.456-.064,5.148,5.148,0,0,0-.784-3.527,1.55,1.55,0,0,1-.187-.4,9.309,9.309,0,0,1,.525-6.707,18.466,18.466,0,0,0-4.87,1.543q-.33.246-.639.518a1.491,1.491,0,0,0,.36,1.572.228.228,0,0,1-.317.325,1.947,1.947,0,0,1-.588-1.378A10,10,0,0,0,9.678,7.611a5.18,5.18,0,0,1,1.4.59.229.229,0,1,1-.24.39,4.723,4.723,0,0,0-1.382-.563,9.977,9.977,0,0,0-.686,1.795q-.13.4-.274.8a1.887,1.887,0,0,1,1.527.79,13.692,13.692,0,0,1,.81-1.86.483.483,0,0,1,.894.346q-.4,1.518-.663,3.066a7.5,7.5,0,0,0,1.789,2.547.229.229,0,0,1-.312.333,7.953,7.953,0,0,1-1.6-2.085q-.025.145-.048.29-.318,1.507-.7,3A2.082,2.082,0,0,0,11.511,18.1a.228.228,0,0,1-.115.442,2.541,2.541,0,0,1-1.352-.888q-.511,1.931-1.127,3.833a3.73,3.73,0,0,0,.1,2.559,12.623,12.623,0,0,0,.578,1.224,1.1,1.1,0,0,0,.968.576h1.685a.433.433,0,0,0,.327-.72,3.517,3.517,0,0,1-.689-1.179,1.548,1.548,0,0,1,0-.974q.338-1.066.771-2.1a52.261,52.261,0,0,1,3.937-4.53,2.882,2.882,0,0,1,.838-.6,7.125,7.125,0,0,0,4.385-5.005.229.229,0,0,1,.442.105,7.563,7.563,0,0,1-1.238,2.7,13.9,13.9,0,0,0,3.551,1.784,3.96,3.96,0,0,1-.79-1.5.229.229,0,0,1,.442-.12,3.507,3.507,0,0,0,1.325,1.91,13.911,13.911,0,0,0,2.4.392,2.772,2.772,0,0,1-.7-1.99.229.229,0,0,1,.241-.235.229.229,0,0,1,.216.258,2.318,2.318,0,0,0,.958,2,13.922,13.922,0,0,0,4.251-.564,30.662,30.662,0,0,1,.686-3.1.23.23,0,0,1,.442.121,30.185,30.185,0,0,0-.7,3.188q-.479,3.655-.74,7.333a6.845,6.845,0,0,0,.163,2.291.7.7,0,0,0,.68.534h2.35a.841.841,0,0,0,.279-1.635.757.757,0,0,1-.5-.79,7.77,7.77,0,0,1,.531-2.136,13.528,13.528,0,0,1,2.32-4.953l.159-.219a11,11,0,0,0,2.939-5.8.229.229,0,0,1,.451.077,11.448,11.448,0,0,1-2.313,5.183,14.162,14.162,0,0,0,4.922-4.287,4.212,4.212,0,0,1,2.868-1.8,6.527,6.527,0,0,0,1.43-.384,1.56,1.56,0,0,1,1.365.107,5.8,5.8,0,0,1,1.443,1.2.3.3,0,0,0,.428.028,2.531,2.531,0,0,0,.558-.707,1.554,1.554,0,0,1,.692-.665,2.224,2.224,0,0,0,.868-.751.3.3,0,0,0,.048-.285,10,10,0,0,0-.9-1.667,1.548,1.548,0,0,1-.226-.542,6.754,6.754,0,0,0-1.359-2.859A2.138,2.138,0,0,0,50.6,3.24a.228.228,0,0,1-.226-.4,2.6,2.6,0,0,1,1.022-.326,6.78,6.78,0,0,0-.675-.612,1.551,1.551,0,0,1-.492-.674A2.327,2.327,0,0,0,49.195.023.17.17,0,0,0,49.113,0Zm2.694,5.033a.381.381,0,0,1,.384.387.38.38,0,0,1-.232.366.391.391,0,1,1-.152-.753Z"/>
  <path id="Path_2" data-name="Path 2" d="M42.555,15.117a7.344,7.344,0,0,1-2.6,2.85q-.461-.787-.884-1.594a14.625,14.625,0,0,0,5.609-4.449,34.376,34.376,0,0,1-.139,3.922,16.906,16.906,0,0,0,.442,3.03,10.721,10.721,0,0,0,2.872,5.07.761.761,0,0,0,.535.22h.375a.841.841,0,0,1,0,1.682H46.528a1.1,1.1,0,0,1-.743-.287,38.6,38.6,0,0,1-4.26-5.136,6.294,6.294,0,0,0,1.594-2.255.229.229,0,0,0-.418-.175,5.837,5.837,0,0,1-1.433,2.049q-.56-.828-1.076-1.684a7.8,7.8,0,0,0,2.775-3.035.229.229,0,0,0,.025-.086.228.228,0,0,0-.124-.222A.229.229,0,0,0,42.691,15a.23.23,0,0,0-.133.114Z"/>
  <path id="Path_3" data-name="Path 3" d="M20.165,18.012a.229.229,0,0,1,.231-.394,3.906,3.906,0,0,0,1.557.507,15.106,15.106,0,0,0,.355-1.559,6.187,6.187,0,0,0-2.636-.257.228.228,0,0,1-.053-.453,6.646,6.646,0,0,1,2.761.254q.082-.573.12-1.15a14.347,14.347,0,0,1-1.759-1.051,7.6,7.6,0,0,1-3.134,2.262,2.455,2.455,0,0,0-.221.123,22.645,22.645,0,0,1,1.083,6.724,1.093,1.093,0,0,0,.139.52A10.061,10.061,0,0,0,20.03,25.5a1.1,1.1,0,0,0,.807.352h1.533a.433.433,0,0,0,.216-.81.626.626,0,0,1-.135-.1,14.455,14.455,0,0,1-1.076-1.2,1.549,1.549,0,0,1-.341-.9,10.145,10.145,0,0,1,.3-2.976q.27-.639.481-1.3a4.364,4.364,0,0,1-1.654-.556Z"/>
  <path id="Path_4" data-name="Path 4" d="M14.451,4.519a10.148,10.148,0,0,0,.787,11.2.229.229,0,0,0,.365-.278,9.693,9.693,0,0,1-.753-10.7.229.229,0,0,0-.4-.224Z"/>
  <path id="Path_5" data-name="Path 5" d="M8.8,14.034a3.588,3.588,0,0,0-1.342-.868q.487-1.015.884-2.07a1.428,1.428,0,0,1,1.5.914A13.14,13.14,0,0,1,8.8,14.034Z"/>
  <path id="Path_6" data-name="Path 6" d="M7.066,13.96q.1-.19.2-.382a3.13,3.13,0,0,1,1.288.849,13.165,13.165,0,0,1-1.005,1.294,4.5,4.5,0,0,1-1.325,1.2,2.874,2.874,0,0,0-.656-1.311,3.779,3.779,0,0,0,1.5-1.649Z"/>
  <path id="Path_7" data-name="Path 7" d="M5.8,17.142a4.52,4.52,0,0,1-3.1.243,1.911,1.911,0,0,0,.518-1.274,3.8,3.8,0,0,0,1.923-.287A2.418,2.418,0,0,1,5.8,17.142Z"/>
  <path id="Path_8" data-name="Path 8" d="M.912,14.385A2.888,2.888,0,0,0,2.079,15.8a3.788,3.788,0,0,0,.676.23A1.456,1.456,0,0,1,2.2,17.221a3.38,3.38,0,0,1-2.2-2.587.471.471,0,0,1,.9-.25Z"/>
</svg>
