<svg xmlns="http://www.w3.org/2000/svg" width="49.95" height="35.525" viewBox="0 0 49.95 35.525">
  <g id="Group_1" data-name="Group 1" transform="translate(-0.526 -7.875)">
    <path id="Path_1" data-name="Path 1" d="M47.685,31.232s-.816,3.277-1.071,3.891a29.14,29.14,0,0,1-1.479,2.765s.714,1.69.816,2-1.479.973-1.683,1.485.306.973,2.3.819c1.989-.1,2.856.1,3.366-2C50.541,38.093,51.408,35.635,47.685,31.232Z"/>
    <path id="Path_2" data-name="Path 2" d="M18.36,29.133l-1.275-3.891a1.427,1.427,0,0,0-1.326-.973H13s.612,2.509,1.275,4.762a11.2,11.2,0,0,0,1.479,3.379Z"/>
    <path id="Path_3" data-name="Path 3" d="M19.839,39.782c-.408.717-.408,1.28-1.479,2s.816.358,3.57.461c0,0,1.275-.41,1.275-1.485a16.362,16.362,0,0,0-.969-3.635A19.717,19.717,0,0,0,19.839,39.782Z"/>
    <path id="Path_4" data-name="Path 4" d="M7.8,11.162s-.765-1.28-1.785-1.024S5.661,12.6,5.661,12.6A3.22,3.22,0,0,1,7.8,11.162Z"/>
    <path id="Path_5" data-name="Path 5" d="M47.226,21.4C45.492,16.64,42.381,9.267,27.744,10.342a8.483,8.483,0,0,1-3.876-1.587c-1.479-1.28-4.182-1.382-7.446,1.178,0,0-1.377.922-6.069,1.485,0,0-2.754.1-3.723,1.229s-2.652,2.406-3.264,3.686a3.734,3.734,0,0,0,0,1.331l-2.6,2.048a.711.711,0,0,0-.153.87c.459.666,1.275,2.509,1.989,2.662a15.624,15.624,0,0,0,4.641.1c1.53-.154,6.222-.154,9.129-.1a1.96,1.96,0,0,1,1.887,1.434l1.275,4.608a28.186,28.186,0,0,1-3.57,4.762,5.2,5.2,0,0,0-1.173,5.683c.612,1.28,2.958,2.662,4.182,0,1.275-2.662,4.845-3.994,5.916-5.888,1.02-1.894,3.162-4.557,2.7-7.885l.051-1.434a6.558,6.558,0,0,1,.561,4.2l-.51,2.048s6.324,1.894,7.65,1.28A10.958,10.958,0,0,1,38.811,25.5s-3.162,5.274-2.754,8.038a12.194,12.194,0,0,1-.306,5.683,3.45,3.45,0,0,1-1.122,2.048s-2.04.307-1.938,1.434c.1,1.178,7.4.512,7.4.512s1.122-.2,1.122-.973,3.264-3.072,5.049-9.216C48.144,26.778,48.909,26.163,47.226,21.4ZM6.018,17.613a.666.666,0,1,1,.663-.666A.676.676,0,0,1,6.018,17.613Zm5.814-1.69A2.912,2.912,0,0,0,10,13.875s.408-1.587,1.275-1.28S11.985,15.053,11.832,15.923Z"/>
  </g>
</svg>
