<svg xmlns="http://www.w3.org/2000/svg" width="45.901" height="30.59" viewBox="0 0 45.901 30.59">
  <g id="Group_1" data-name="Group 1" transform="translate(-2.55 -10.305)">
    <path id="Path_1" data-name="Path 1" d="M42.5,19.759c-.1-.265-.609.041-.852-.1a1.317,1.317,0,0,0-1.023,0c-.243.143-.751-.163-.852.1s-.067,1.059.413,1.161.5.237.935.244h.032c.435-.007.467-.144.935-.244S42.6,20.023,42.5,19.759Z"/>
    <path id="Path_2" data-name="Path 2" d="M3.829,24.886a19.385,19.385,0,0,1-.654,3.844S1.4,27.792,3.829,24.886Z"/>
    <path id="Path_3" data-name="Path 3" d="M48.306,13.17a4.2,4.2,0,0,0-1.152-.634,3.059,3.059,0,0,0-1.975.494.219.219,0,0,1-.3-.083,3.773,3.773,0,0,0-1.464-1.48,13,13,0,0,1-1.368,5.108,2.236,2.236,0,0,0,.334,2.488c.524.321.542.669.542.669.133.348.088,1.391-.542,1.525-.615.13-.657.311-1.228.32h-.042c-.571-.009-.612-.19-1.228-.32-.63-.134-.675-1.177-.542-1.525,0,0,.018-.348.542-.669a2.236,2.236,0,0,0,.334-2.488,13.013,13.013,0,0,1-1.368-5.106l0,0a2.327,2.327,0,0,0-.823.692l-.054.07a4.087,4.087,0,0,0-.691,2.837s-.1-.431-.489-.364A3.053,3.053,0,0,1,33.9,13.675a.354.354,0,0,1,.066-.507,4.2,4.2,0,0,1,1.15-.632,2.253,2.253,0,0,1,1.508.246.906.906,0,0,0,.922-.09l-3.77-1.2a8.353,8.353,0,0,0-2.54-.4H15.568a2.352,2.352,0,0,1-.786-.136l-1.2-.427a2.437,2.437,0,0,0-1.929.161,2.343,2.343,0,0,1-1.622.189l-2.166-.528a1.608,1.608,0,0,0-1.286.234l-1.38.941A1.6,1.6,0,0,0,4.5,12.843V23.986S4.38,28.97,3.31,30.034a.734.734,0,0,0-.2.571l.639,9.855a.463.463,0,0,0,.461.434H5.74a.463.463,0,0,0,.437-.616,13.539,13.539,0,0,1-.465-7.339A8.664,8.664,0,0,1,7.8,28.783l.562-.581-.318.787a7.709,7.709,0,0,0,1.979,1.166l-.131.533a.441.441,0,0,0,.221.5.426.426,0,0,0,.6-.282l.123-.5a5.3,5.3,0,0,0,.915.131l.056.848a.427.427,0,0,0,.425.4h.029a.428.428,0,0,0,.4-.455l-.054-.822a5.272,5.272,0,0,0,.894-.185l.219.553a.425.425,0,0,0,.582.227.447.447,0,0,0,.2-.568l-.205-.518A6.271,6.271,0,0,0,15.7,29.1a6.433,6.433,0,0,1-.554-.357c-.184-.118-.342-.26-.5-.382s-.295-.254-.417-.38-.234-.239-.326-.346-.169-.2-.231-.284a3.022,3.022,0,0,1-.18-.263s.344.31.9.706c.135.1.292.2.449.312s.332.217.515.322l.275.164.288.156c.19.112.395.2.6.3s.408.183.609.274a9.535,9.535,0,0,0,1.567.472c4.164.849,9.829-.233,11.125-.5l.274-1.8v5.559a5.381,5.381,0,0,0,.356,1.924,2.672,2.672,0,0,1,.177.958V38.9a3.592,3.592,0,0,1-.045.568.253.253,0,0,0,.135.27l.012.006A.507.507,0,0,1,31,40.1l.083.46a.4.4,0,0,0,.393.33h1.134a.329.329,0,0,0,.294-.476,3.586,3.586,0,0,1-.366-1.58v-1.9a2.343,2.343,0,0,1,.454-1.374,5.217,5.217,0,0,0,.921-2.205L34.6,29.07l0,1.741a2.169,2.169,0,0,0,2.5-1.065L41.136,22.2c.208.013,1.944.072,2.111-1.571.178-1.748-.32-1.89.5-3.032a5.038,5.038,0,0,0,1.25-2.611.22.22,0,0,1,.237-.214,3.708,3.708,0,0,0,3.143-1.1A.352.352,0,0,0,48.306,13.17Z"/>
  </g>
</svg>
