<svg xmlns="http://www.w3.org/2000/svg" width="40.371" height="44.175" viewBox="0 0 40.371 44.175">
  <g id="Group_1" data-name="Group 1" transform="translate(-5.723 -2.325)">
    <path id="Path_1" data-name="Path 1" d="M9.808,35.491l-1.7,2.956a1.725,1.725,0,0,0-.225,1.023l.645,7.03h.849V41.85a.769.769,0,0,1,.063-.305l1.126-2.606-.375-2.975Z"/>
    <path id="Path_2" data-name="Path 2" d="M28.969,35.323l.713,5.656a.754.754,0,0,1,.006.1V46.5H31.25V39.525a.765.765,0,0,1,0-.086l.629-5.619q-.567.336-1.161.632Z"/>
    <path id="Path_3" data-name="Path 3" d="M5.807,27.43a2.767,2.767,0,0,0,.316,2.111l1.033,1.708.076-.1a7.324,7.324,0,0,1-.2-1.7v-1.14A7.3,7.3,0,0,1,7.6,25.487l.011-.025-.24.108a2.79,2.79,0,0,0-1,.752A2.761,2.761,0,0,0,5.807,27.43Z"/>
    <path id="Path_4" data-name="Path 4" d="M31.135,14.725h.478l.35-.521-.579-.575a1.58,1.58,0,0,0-1.1-.454h-.89l.349.693a1.544,1.544,0,0,0,.575.627A1.562,1.562,0,0,0,31.135,14.725Z"/>
    <path id="Path_5" data-name="Path 5" d="M36.719,22.475H33.594a.787.787,0,0,1-.411-.116.778.778,0,0,1-.288-.313l-1.144-2.269L30.1,21A3.556,3.556,0,0,1,28,21.7H25.233a5.511,5.511,0,0,0-1.73.278l-.569.189a6.1,6.1,0,0,1-1.914.308H14.481a5.912,5.912,0,0,0-4.162,1.711,5.817,5.817,0,0,0-1.724,4.129v1.14A5.812,5.812,0,0,0,9.884,33.1l1.664,2.063a.772.772,0,0,1,.165.388l.43,3.408s0,.008,0,.011l.323,2.564a.783.783,0,0,0,.057.21L14.578,46.5h1.047v-.667l-1.532-5.32a.768.768,0,0,1-.03-.213V37.2a.772.772,0,0,1,.229-.548l1.854-1.84A3.378,3.378,0,0,1,15.625,33V31.775a.772.772,0,0,1,.229-.548.786.786,0,0,1,1.1,0,.772.772,0,0,1,.229.548V33a1.848,1.848,0,0,0,.479,1.242l1.8.893a4.952,4.952,0,0,0,2.183.511H25a.785.785,0,0,1,.5.184.773.773,0,0,1,.266.464l.781,4.65a.777.777,0,0,1,.011.127V46.5h1.563V41.123l-.775-6.152a.77.77,0,0,1,.086-.462.779.779,0,0,1,.339-.327l2.249-1.116a16.032,16.032,0,0,0,2.331-1.415l.024-.018a15.978,15.978,0,0,0,1.808-1.543l1.253-1.243A6.9,6.9,0,0,0,37.5,23.915V21.883l-.083.164a.778.778,0,0,1-.288.313A.786.786,0,0,1,36.719,22.475ZM21.094,27.9h-.781a.785.785,0,0,1-.552-.227.77.77,0,0,1,0-1.1.784.784,0,0,1,.552-.227h.781a.784.784,0,0,1,.552.227.771.771,0,0,1,0,1.1A.785.785,0,0,1,21.094,27.9Zm2.344-2.325h-.781a.785.785,0,0,1-.552-.227.771.771,0,0,1,0-1.1.784.784,0,0,1,.552-.227h.781a.784.784,0,0,1,.552.227.771.771,0,0,1,0,1.1A.785.785,0,0,1,23.438,25.575ZM25.781,27.9H25a.785.785,0,0,1-.552-.227.77.77,0,0,1,0-1.1A.784.784,0,0,1,25,26.35h.781a.784.784,0,0,1,.552.227.771.771,0,0,1,0,1.1A.785.785,0,0,1,25.781,27.9Zm1.563-3.1h-.781a.785.785,0,0,1-.552-.227.77.77,0,0,1,0-1.1.784.784,0,0,1,.552-.227h.781a.784.784,0,0,1,.552.227.771.771,0,0,1,0,1.1A.785.785,0,0,1,27.344,24.8Zm2.344,2.325h-.781a.785.785,0,0,1-.552-.227.771.771,0,0,1,0-1.1.784.784,0,0,1,.552-.227h.781a.784.784,0,0,1,.552.227.771.771,0,0,1,0,1.1A.785.785,0,0,1,29.688,27.125Z"/>
    <path id="Path_6" data-name="Path 6" d="M38.929,13.629l-.579.575.35.521h.477a1.563,1.563,0,0,0,.822-.23,1.545,1.545,0,0,0,.575-.627l.35-.693h-.89A1.58,1.58,0,0,0,38.929,13.629Z"/>
    <path id="Path_7" data-name="Path 7" d="M45.746,4.005a.785.785,0,0,0-1.083.215l-.6.893A7.816,7.816,0,0,1,42.71,6.646a9.494,9.494,0,0,0,.259-2.2V3.1a.772.772,0,0,0-.229-.548.786.786,0,0,0-1.1,0,.772.772,0,0,0-.229.548V4.448a7.974,7.974,0,0,1-2,5.277L37.5,11.886A5.557,5.557,0,0,1,38.45,8.9l.482-.717A.772.772,0,0,0,38.717,7.1a.784.784,0,0,0-1.086.218l-.482.717a7.1,7.1,0,0,0-1.212,3.971V13.95H34.375V12.008a7.1,7.1,0,0,0-1.212-3.971l-.482-.717a.781.781,0,0,0-.5-.333A.786.786,0,0,0,31.6,7.1a.771.771,0,0,0-.214,1.078l.482.717a5.557,5.557,0,0,1,.948,2.989L30.905,9.725a7.975,7.975,0,0,1-2-5.277V3.1a.772.772,0,0,0-.229-.548.786.786,0,0,0-1.1,0,.772.772,0,0,0-.229.548V4.448a9.489,9.489,0,0,0,.259,2.2A7.815,7.815,0,0,1,26.25,5.113l-.6-.893a.782.782,0,0,0-.5-.333A.786.786,0,0,0,24.564,4a.774.774,0,0,0-.333.495.77.77,0,0,0,.119.583l.6.893a9.368,9.368,0,0,0,2.622,2.6l.9.6a.781.781,0,0,0,.18.087,9.56,9.56,0,0,0,1.076,1.489l3.277,3.715a.781.781,0,0,0,.4.241l.053.067,0,0-.646.962v2.682l1.264,2.508h2.159L37.5,18.417V15.735l-.647-.963,0,0L36.9,14.7a.781.781,0,0,0,.4-.241l3.277-3.715A9.566,9.566,0,0,0,41.66,9.257a.781.781,0,0,0,.18-.087l.9-.6a9.368,9.368,0,0,0,2.622-2.6l.6-.893a.771.771,0,0,0-.217-1.074Z"/>
  </g>
</svg>
